<?xml version="1.0" encoding="utf-8"?>
<!-- Generator: Adobe Illustrator 21.0.0, SVG Export Plug-In . SVG Version: 6.00 Build 0)  -->
<svg version="1.1" id="Layer_1" xmlns="http://www.w3.org/2000/svg" xmlns:xlink="http://www.w3.org/1999/xlink" x="0px" y="0px"
	 viewBox="0 0 434 386" style="enable-background:new 0 0 434 386;" xml:space="preserve">
<style type="text/css">
	.st0{fill:#1EB898;}
	.st1{filter:url(#Adobe_OpacityMaskFilter);}
	.st2{fill:#FFFFFF;}
	.st3{mask:url(#mask-4);fill:#1EB898;}
</style>
<g transform="translate(364.083154, 277.418866) rotate(-335.000000) translate(-364.083154, -277.418866) translate(180.583154, 23.918866)">
	<path id="Fill-1" class="st0" d="M134.6,270.5l-2.8-1.4c-0.9-0.5-1.9-1-2.8-1.6c-0.5-0.3-0.9-0.6-1.4-0.8l-1.3-0.9
		c-0.2-0.1-0.5-0.3-0.7-0.4l-0.6-0.5l-1.3-0.9c-0.4-0.3-0.8-0.6-1.3-1l-1.2-1c-0.4-0.3-0.8-0.7-1.2-1.1l-1.1-1.1l-0.3-0.3l-0.3-0.3
		l-0.5-0.6l-1.1-1.2c-0.7-0.8-1.3-1.7-2-2.5c-0.6-0.9-1.2-1.7-1.8-2.6l-1.6-2.7l-1.4-2.8c-0.4-0.9-0.9-1.9-1.3-2.9
		c-0.8-1.9-1.6-3.9-2.2-5.8l-0.5-1.5c-0.2-0.5-0.3-1-0.5-1.5c-0.3-1-0.6-2-0.9-3l-0.8-3c-0.1-0.3-0.1-0.5-0.2-0.8l-0.2-0.8
		c-0.1-0.5-0.2-1-0.3-1.5c-0.4-2.1-0.7-4.1-0.9-6.2c-0.2-2.1-0.3-4.2-0.3-6.2c0-2.1,0.1-4.2,0.3-6.2c0.4-4.1,1.2-8.2,2.2-12.3
		c0.5-2,1.1-4,1.8-6c0.7-2,1.4-3.9,2.3-5.9l-0.1,0.5v0l0-0.6c0-0.1,0-0.2,0-0.3l0-0.3c0-0.2,0-0.4,0.1-0.6l0.1-0.6
		c0-0.2,0.1-0.4,0.1-0.6c0-0.2,0.1-0.4,0.1-0.6c0-0.2,0.1-0.4,0.2-0.6c0.1-0.2,0.1-0.4,0.2-0.6l0.5,1.1c-0.2-0.1-0.3-0.2-0.5-0.3
		c-0.1-0.1-0.3-0.2-0.4-0.4c-0.1-0.1-0.2-0.3-0.3-0.4c-0.1-0.1-0.1-0.3-0.2-0.4l-0.1-0.4l0-0.4c0-0.2,0-0.5,0-0.7
		c0-0.5,0.1-0.9,0.1-1.3c0.1-0.4,0.1-0.8,0.2-1.2l0.1-0.6l0-0.3l0.1-0.3c0-0.2,0.1-0.4,0.1-0.6c0.1-0.2,0.1-0.5,0.2-0.7
		c0.1-0.2,0.1-0.4,0.2-0.6c0.1-0.2,0.2-0.4,0.2-0.6c0.1-0.2,0.2-0.4,0.3-0.6c0.1-0.2,0.2-0.4,0.3-0.6l0.3,1.1l-0.4-0.3l-0.4-0.3
		c-0.3-0.2-0.5-0.4-0.7-0.7c-0.2-0.2-0.5-0.5-0.7-0.7c-0.2-0.2-0.4-0.5-0.6-0.8c-0.8-1-1.4-2.1-2-3.2c-0.6-1.1-1.1-2.2-1.6-3.3
		c-0.3-0.6-0.5-1.1-0.7-1.7l-0.3-0.9c-0.1-0.3-0.2-0.6-0.3-0.9l0,0l0-0.1c-0.2-1.2-0.6-2.4-0.9-3.6c-0.3-1.2-0.7-2.4-1.1-3.6
		l-0.6-1.8l-0.6-1.8c-0.4-1.2-0.8-2.4-1.3-3.6c-0.5-1.2-0.9-2.4-1.3-3.5l-1.4-3.5l-0.4-0.9l-0.2-0.5l-0.2-0.4l-0.7-1.8
		c-0.2-0.6-0.4-1.2-0.6-1.8c-0.2-0.6-0.4-1.2-0.6-1.9l-0.5-1.9l-0.2-0.9c-0.1-0.3-0.1-0.6-0.2-0.9l-0.4-1.9
		c-0.1-0.6-0.2-1.3-0.3-1.9c-0.1-0.6-0.2-1.3-0.3-1.9l-0.2-1.9c-0.1-0.6-0.1-1.3-0.2-1.9l-0.1-1.9c-0.1-1.3-0.1-2.5-0.2-3.8
		c0-1.3,0-2.5,0-3.8c0-1.3,0-2.5,0.1-3.8c0.1-1.3,0.1-2.5,0.2-3.8l0.1,0.5l-1.8-3c-0.3-0.5-0.6-1-0.8-1.5l-0.8-1.5l-0.4-0.8
		l-0.2-0.4l-0.2-0.4l-0.7-1.6L85,88.7c-0.2-0.5-0.4-1.1-0.6-1.6C84,86,83.5,85,83.2,83.9l-0.5-1.6l-0.3-0.8l-0.2-0.8l-0.5-1.7
		c-0.2-0.6-0.3-1.1-0.4-1.7c-0.3-1.1-0.5-2.2-0.8-3.3l-0.7-3.4l-0.5-3.4l-0.4-3.4l-0.3-3.4c-0.1-1.1-0.2-2.3-0.2-3.4
		c-0.1-1.1-0.1-2.3-0.2-3.4C78,51.3,78,49,77.9,46.8l0-3.4c0-1.1,0-2.3,0-3.4c0-2.3,0.2-4.6,0.4-6.8c0.2-2.3,0.6-4.6,1.1-6.8
		c0.5-2.3,1.3-4.5,2.3-6.6l0.4-0.8c0.1-0.3,0.3-0.5,0.4-0.8c0.3-0.5,0.6-1,0.9-1.5c0.3-0.5,0.6-1,1-1.5l0.5-0.7l0.3-0.4l0.1-0.1
		l0.1-0.1l0,0l0.1-0.2l0.3-0.3c0.1-0.1,0.2-0.2,0.3-0.3c0.2-0.2,0.4-0.5,0.6-0.7c0.2-0.2,0.4-0.4,0.7-0.6l0.7-0.6
		c1-0.8,2-1.4,3.1-1.9c2.2-1.1,4.6-1.7,7-2.1c1.2-0.2,2.4-0.3,3.6-0.4c0.6,0,1.2,0,1.8,0c0.6,0,1.2,0,1.9,0.1l-0.2,0l0.4,0l0.2,0
		c0.1,0,0.1,0,0.2,0l0.4,0.1c0.1,0,0.3,0,0.4,0.1c0.1,0,0.3,0.1,0.4,0.1l0.2,0.1c0.1,0,0.1,0.1,0.2,0.1c0.1,0.1,0.3,0.1,0.4,0.2
		c0.1,0,0.1,0.1,0.2,0.1c0.1,0.1,0.1,0.1,0.2,0.2l0-0.1l1.4,1.6l0.7,0.8c0.2,0.3,0.4,0.6,0.6,0.8l1.3,1.7l1.2,1.7
		c0.2,0.3,0.4,0.6,0.6,0.9l0.5,0.9c0.3,0.6,0.7,1.2,1,1.8l1,1.9l0.2,0.5l0.2,0.5l0.4,0.9l0.4,0.9c0.1,0.3,0.3,0.6,0.4,1
		c0.3,0.6,0.5,1.3,0.8,1.9l0.7,1.9l0.6,2l0.6,2c0.2,0.7,0.3,1.3,0.5,2c0.2,0.7,0.3,1.3,0.4,2c0.1,0.7,0.2,1.4,0.3,2.1l-0.2-0.5
		l1.2,1.4l1.1,1.4c0.7,1,1.4,1.9,2,2.9c0.3,0.5,0.6,1,0.9,1.5c0.3,0.5,0.6,1,0.9,1.5c0.6,1,1.2,2,1.7,3c0.6,1,1.1,2,1.6,3.1
		c0.5,1,1.1,2.1,1.6,3.1c0.5,1,1,2.1,1.5,3.1c0.5,1,1,2.1,1.5,3.1c0.5,1.1,0.9,2.1,1.4,3.2c0.5,1.1,0.9,2.1,1.4,3.2l0.7,1.6l0.2,0.4
		l0,0.1l0,0.1l0.1,0.2l0.3,0.8l0.6,1.6c0.2,0.5,0.4,1.1,0.6,1.6l0.5,1.7c0.2,0.6,0.3,1.1,0.5,1.7l0.4,1.7l0.2,0.8l0.1,0.9l0.3,1.7
		l0.2,1.7c0.1,1.2,0.2,2.3,0.2,3.5l-0.1-0.5l0.5,0.7l0.1,0.2l0.1,0.2l0.2,0.4l1,1.4c0.6,1,1.2,2,1.8,3l1.6,3c0.5,1,1,2,1.6,3
		c0.5,1,1,2,1.5,3c0.5,1,1,2,1.5,3.1l1.5,3.1l1.4,3.1l1.4,3.1c0.5,1,0.9,2.1,1.4,3.1l1.4,3.1l1.3,3.1c1.8,4.1,3.5,8.3,5.3,12.5
		l-0.3-0.3l0.4,0.3l0.3,0.4c0.2,0.2,0.4,0.5,0.5,0.7c0.3,0.5,0.6,1,0.9,1.5c0.5,1,1,2,1.5,2.9c0.1,0.2,0.2,0.5,0.4,0.7
		c0.1,0.1,0.1,0.2,0.2,0.3l0.1,0.1l0,0l0.1,0.1l0,0l0.1,0.1c0.1,0.2,0.3,0.4,0.4,0.8l0.2,0.4c0.1,0.2,0.1,0.3,0.2,0.4
		c0.2,0.5,0.4,1.1,0.5,1.6c0.1,0.3,0.1,0.5,0.2,0.8c0.1,0.3,0.1,0.5,0.2,0.8l-0.3-0.5l0.5,0.4c0.2,0.1,0.3,0.3,0.4,0.4
		c0.1,0.1,0.3,0.3,0.4,0.4c0.1,0.1,0.3,0.3,0.4,0.4l0.4,0.4l0.3,0.5c0.2,0.3,0.4,0.6,0.6,0.9c0.8,1.2,1.5,2.5,2.2,3.8
		c0.3,0.6,0.6,1.3,1,1.9l0.2,0.5l0.1,0.2l0,0.1l0,0l0,0.1l0,0.1l0.2,0.5c0.1,0.2,0.1,0.3,0.2,0.5l0.1,0.6c0.1,0.2,0.1,0.4,0.1,0.6
		c0,0.4,0.1,0.8,0.1,1.2c0,0.2,0,0.4,0,0.6l0,0.6c0,0.4-0.1,0.8-0.2,1.2l-0.7-1.1c0.3,0.1,0.6,0.2,0.9,0.4c0.3,0.1,0.5,0.3,0.7,0.5
		c0.2,0.2,0.4,0.4,0.5,0.6c0.2,0.2,0.3,0.4,0.4,0.6c0.1,0.2,0.2,0.4,0.3,0.6c0.1,0.2,0.2,0.4,0.3,0.7l0.3,1.3l0.6,2.5l0,0.1l0,0
		l0,0.1l0,0l0,0l0,0.2l0,0.2c0,0,0,0,0,0.1l0,0.1c0,0.2,0,0.3,0,0.5l-0.1,0.4c-0.1,0.3-0.1,0.5-0.2,0.7c-0.1,0.2-0.2,0.4-0.4,0.7
		l-0.3-1.2c0.2,0.1,0.4,0.2,0.5,0.4l0.2,0.2l0.2,0.2c0.1,0.1,0.1,0.2,0.2,0.2c0.1,0.1,0.1,0.2,0.2,0.2c0.1,0.1,0.1,0.2,0.2,0.3
		c0,0,0.1,0.1,0.1,0.1c0,0,0,0.1,0.1,0.2l0,0.1l0,0.1c0.2,1,0.3,2,0.4,3c0.1,0.5,0.1,1,0.2,1.5c0.1,0.5,0.1,1,0.2,1.5l0.1,1.6l0,0.1
		l0,0l0,0v0l0,0.1l0,0l0,0l0,0.2l0,0.4c0,0.3-0.1,0.6-0.2,0.9l-0.3,0.8c-0.1,0.2-0.2,0.5-0.3,0.7c-0.1,0.2-0.2,0.5-0.3,0.7
		c-0.1,0.2-0.2,0.5-0.4,0.7l0,0l-0.2-1.1l0.4,0.4c0.1,0.1,0.3,0.2,0.4,0.4l0.4,0.4c0.1,0.1,0.2,0.3,0.3,0.4c0.1,0.1,0.2,0.3,0.3,0.4
		c0.1,0.2,0.2,0.3,0.3,0.5c0.1,0.2,0.2,0.3,0.2,0.5c0,0.1,0.1,0.2,0.1,0.3c0,0.1,0.1,0.2,0.1,0.3l0,0.1l0,0.1c0,2.7,0.7,5.5,1.6,8.2
		l0.7,2l0.4,1l0.3,1.1c0.2,0.7,0.4,1.4,0.6,2.1l0.6,2.1c0.2,0.7,0.4,1.4,0.5,2.1l0.5,2.1c0.3,1.4,0.6,2.8,0.8,4.3
		c0.3,1.4,0.5,2.8,0.7,4.3c0.2,1.4,0.5,2.9,0.7,4.3l0.3,2.1l0.3,2.1l0.3,2.1l0.2,2.1c0.2,1.4,0.3,2.9,0.5,4.3
		c0.2,1.4,0.3,2.9,0.4,4.3c0.1,1.4,0.3,2.9,0.4,4.3c0.1,1.4,0.2,2.9,0.3,4.3c0.1,1.4,0.2,2.9,0.3,4.3c0.1,1.4,0.2,2.9,0.3,4.3
		c0.2,2.9,0.3,5.7,0.5,8.6c0.1,2.9,0.3,5.8,0.4,8.6c0.2,5.8,0.4,11.5,0.5,17.3l0.2,8.6l0,1.1l0,0.5c0,0.2,0,0.3,0,0.5l0.4,2.1
		l0.7,4.3c0.5,2.8,1,5.7,1.5,8.5l1.5,8.5l0,0.1l0,0.1l0,2.9c0,1,0,2-0.1,2.9c-0.1,2-0.2,3.9-0.3,5.9c-0.2,2-0.4,3.9-0.7,5.9
		c-0.2,1-0.3,1.9-0.5,2.9l-0.3,1.5l-0.2,0.7l-0.2,0.7l-0.4,1.4l-0.4,1.4c-0.1,0.5-0.3,0.9-0.5,1.4c-0.2,0.5-0.3,0.9-0.5,1.4
		c-0.7,1.9-1.6,3.7-2.5,5.4c-1,1.8-2.2,3.4-3.5,5c-0.7,0.8-1.4,1.5-2.1,2.2c-0.8,0.7-1.6,1.3-2.4,1.9c-1.7,1.2-3.5,2.2-5.4,3
		l-0.7,0.3l-0.2,0.1l-0.1,0l-0.1,0l0,0l-0.4,0.1c-0.2,0.1-0.5,0.2-0.8,0.2l-0.4,0.1l-0.4,0.1c-1,0.3-2,0.5-3,0.6
		c-2,0.4-4,0.7-6.1,0.9c-2,0.3-4.1,0.5-6.1,0.8c-4.1,0.5-8.1,0.9-12.2,1.2c-4.1,0.4-8.1,0.7-12.2,1l0.1,0l-4.5,0.9l-2.2,0.5
		c-0.8,0.1-1.5,0.3-2.2,0.5l-4.5,1c-0.7,0.2-1.5,0.4-2.2,0.6l-2.2,0.6c-0.7,0.2-1.5,0.4-2.2,0.6l-2.2,0.6l-2.2,0.6
		c-0.7,0.2-1.5,0.4-2.2,0.6l-2.2,0.6c-0.7,0.2-1.5,0.5-2.2,0.7c-0.7,0.2-1.5,0.4-2.2,0.7c-0.7,0.2-1.5,0.5-2.2,0.7l0.1,0
		c-3.2,1.7-6.5,2.9-9.8,4.1c-3.3,1.2-6.7,2.2-10.1,3.3c-3.4,1-6.8,2-10.2,2.9c-3.4,0.9-6.8,1.8-10.3,2.7c-6.9,1.7-13.8,3.3-20.7,4.9
		l-10.4,2.3l-5.2,1.2c-0.4,0.1-0.9,0.2-1.3,0.3l-0.3,0.1l-0.3,0.1l-0.6,0.2c-0.9,0.3-1.7,0.5-2.5,0.8c-1.7,0.5-3.3,1.1-4.9,1.8
		c-1.6,0.6-3.2,1.4-4.8,2.1c-3.1,1.6-6.1,3.4-8.7,5.6c-0.3,0.3-0.7,0.6-1,0.8l-1,0.9l-1.9,1.8l-2,1.7l-2,1.7
		c-2.7,2.2-5.5,4.3-8.3,6.4c-5.6,4.2-11.2,8.3-16.9,12.4c-1.4,1-2.8,2-4.3,3l-4.4,2.9l-8.8,5.7l-0.5-0.8l8.8-5.7l4.4-2.9
		c1.4-1,2.9-2,4.3-3c5.7-4.1,11.3-8.2,16.9-12.4c2.8-2.1,5.5-4.2,8.2-6.4l2-1.7l2-1.7l1.9-1.8l1-0.9c0.3-0.3,0.6-0.6,1-0.9
		c2.7-2.2,5.7-4.1,8.9-5.7c1.6-0.8,3.2-1.5,4.9-2.2c1.6-0.7,3.3-1.3,5-1.8c0.8-0.3,1.7-0.5,2.5-0.8l0.6-0.2l0.3-0.1l0.3-0.1
		c0.4-0.1,0.9-0.2,1.3-0.3l5.2-1.2l10.4-2.3c6.9-1.6,13.8-3.2,20.6-4.9c3.4-0.9,6.8-1.7,10.3-2.7c3.4-0.9,6.8-1.9,10.2-2.9
		c3.4-1,6.7-2.1,10-3.3c3.3-1.2,6.6-2.5,9.6-4.1l0.1,0l0,0c0.7-0.3,1.5-0.5,2.2-0.7c0.7-0.2,1.5-0.5,2.2-0.7
		c0.7-0.2,1.5-0.5,2.2-0.7l2.2-0.7c0.7-0.2,1.5-0.4,2.2-0.6l2.2-0.6l2.2-0.6c0.7-0.2,1.5-0.4,2.2-0.6l2.2-0.6
		c0.7-0.2,1.5-0.4,2.2-0.6l4.5-1c0.7-0.2,1.5-0.4,2.2-0.5l2.3-0.5l4.5-0.9l0,0l0,0c4.1-0.3,8.1-0.7,12.2-1c4.1-0.4,8.1-0.8,12.1-1.3
		c4-0.5,8.1-1,12-1.7c1-0.2,2-0.4,2.9-0.6l0.4-0.1l0.3-0.1c0.2-0.1,0.4-0.1,0.7-0.2l0.4-0.1l0.3-0.1l0.7-0.3
		c1.8-0.8,3.6-1.7,5.1-2.9c0.8-0.6,1.5-1.2,2.3-1.8c0.7-0.7,1.4-1.4,2-2.1c1.3-1.5,2.4-3.1,3.3-4.7c0.9-1.7,1.8-3.4,2.4-5.3
		c0.2-0.4,0.3-0.9,0.5-1.4c0.2-0.5,0.3-0.9,0.4-1.4l0.4-1.4l0.4-1.4l0.2-0.7l0.2-0.7l0.3-1.4c0.2-1,0.4-1.9,0.5-2.9
		c0.3-1.9,0.5-3.8,0.7-5.8c0.2-1.9,0.3-3.9,0.3-5.8c0-1,0-1.9,0-2.9l0-2.9l0,0.1l-1.6-8.5c-0.5-2.8-1-5.7-1.5-8.5l-0.7-4.3l-0.4-2.1
		c0-0.2,0-0.4,0-0.6l0-0.5l0-1.1l-0.2-8.6c-0.1-5.7-0.3-11.5-0.5-17.2c-0.1-2.9-0.2-5.7-0.4-8.6c-0.1-2.9-0.3-5.7-0.5-8.6
		c-0.1-1.4-0.2-2.9-0.3-4.3c-0.1-1.4-0.2-2.9-0.3-4.3c-0.1-1.4-0.2-2.9-0.3-4.3c-0.1-1.4-0.2-2.9-0.4-4.3c-0.1-1.4-0.3-2.9-0.4-4.3
		c-0.1-1.4-0.3-2.9-0.5-4.3l-0.2-2.1l-0.3-2.1l-0.3-2.1l-0.3-2.1c-0.2-1.4-0.4-2.8-0.7-4.3c-0.2-1.4-0.5-2.8-0.7-4.2
		c-0.3-1.4-0.6-2.8-0.8-4.2l-0.5-2.1c-0.2-0.7-0.3-1.4-0.5-2.1l-0.6-2.1c-0.2-0.7-0.4-1.4-0.6-2l-0.3-1l-0.4-1l-0.7-2
		c-1-2.8-1.7-5.7-1.7-8.7l0,0.2l0-0.1c0-0.1,0-0.1-0.1-0.2c0-0.1-0.1-0.2-0.2-0.4c-0.1-0.1-0.1-0.2-0.2-0.4
		c-0.1-0.1-0.2-0.2-0.2-0.3c-0.1-0.1-0.2-0.2-0.3-0.3l-0.3-0.3c-0.1-0.1-0.2-0.2-0.3-0.3l-0.3-0.3l-0.5-0.5l0.3-0.6l0,0
		c0.1-0.2,0.2-0.4,0.3-0.6c0.1-0.2,0.2-0.4,0.3-0.6c0.1-0.2,0.2-0.4,0.3-0.7l0.2-0.7l0.1-0.6l0-0.4l0-0.2l0,0l0,0c0,0.1,0,0,0,0.1
		l0,0v0l0,0l0-0.1l-0.1-1.4c0-0.5-0.1-1-0.2-1.5c-0.1-0.5-0.1-1-0.2-1.5c-0.1-1-0.3-2-0.4-3l0.1,0.2l0,0c0,0,0,0,0-0.1
		c0,0-0.1-0.1-0.1-0.1c0,0-0.1-0.1-0.1-0.1c0,0-0.1-0.1-0.1-0.1l-0.1-0.1l-0.1-0.1c-0.1-0.1-0.2-0.1-0.3-0.2l-0.7-0.5l0.4-0.7
		c0.1-0.1,0.2-0.3,0.2-0.4c0.1-0.2,0.1-0.3,0.2-0.5l0.1-0.2c0-0.1,0-0.1,0-0.1l0,0c0,0,0,0,0-0.1l0-0.2l0-0.2l0,0l0,0
		c0-0.1,0,0.1,0,0.1l0,0l0,0l0,0l0-0.1l-0.6-2.5l-0.3-1.2c0-0.1-0.1-0.3-0.2-0.5c-0.1-0.2-0.2-0.3-0.3-0.5c-0.1-0.2-0.2-0.3-0.3-0.4
		c-0.1-0.1-0.2-0.3-0.3-0.4c-0.1-0.1-0.2-0.2-0.4-0.3c-0.1-0.1-0.2-0.1-0.3-0.1l-0.9-0.3l0.2-0.8c0.1-0.2,0.1-0.6,0.2-0.9l0-0.5
		c0-0.2,0-0.3,0-0.5c0-0.3,0-0.6-0.1-1c0-0.2,0-0.3-0.1-0.5l-0.1-0.4c0-0.1-0.1-0.3-0.2-0.5l-0.2-0.5l0-0.1l0-0.1l0,0l0,0
		c0,0.1,0,0,0,0.1l0,0l0,0l-0.1-0.2l-0.2-0.5c-0.3-0.6-0.6-1.3-0.9-1.9c-0.6-1.2-1.3-2.5-2.1-3.6c-0.2-0.3-0.4-0.6-0.6-0.8l-0.3-0.4
		l-0.3-0.4c-0.1-0.1-0.2-0.3-0.3-0.4c-0.1-0.1-0.2-0.3-0.3-0.4c-0.1-0.1-0.2-0.2-0.3-0.3l-0.4-0.3l-0.2-0.2l-0.1-0.3
		c-0.1-0.2-0.1-0.5-0.2-0.8c-0.1-0.3-0.1-0.5-0.2-0.8c-0.1-0.5-0.3-1-0.5-1.5c0-0.1-0.1-0.2-0.1-0.3l-0.1-0.3
		c-0.1-0.2-0.2-0.4-0.4-0.7l-0.1-0.1l0,0l0,0c0,0,0-0.1,0,0.1l0,0l0,0l0-0.1l-0.1-0.2c-0.1-0.1-0.2-0.3-0.2-0.4
		c-0.1-0.3-0.3-0.5-0.4-0.8c-0.5-1-0.9-2-1.4-2.9c-0.2-0.5-0.5-0.9-0.8-1.3c-0.1-0.2-0.3-0.4-0.4-0.6l-0.2-0.3l-0.2-0.2l-0.2-0.2
		l-0.1-0.2c-1.7-4.2-3.5-8.3-5.2-12.4l-1.3-3.1l-1.4-3.1c-0.5-1-0.9-2.1-1.4-3.1l-1.4-3.1l-1.4-3.1l-1.4-3c-0.5-1-1-2-1.5-3
		c-0.5-1-1-2-1.5-3c-0.5-1-1-2-1.6-3l-1.6-2.9c-0.6-0.9-1.1-1.9-1.7-2.8l-1-1.4l-0.2-0.4l-0.1-0.2l-0.1-0.2l-0.5-0.7l-0.1-0.2l0-0.3
		c0-1.1,0-2.2-0.2-3.3l-0.2-1.7l-0.3-1.7l-0.1-0.8l-0.2-0.8l-0.4-1.6c-0.1-0.6-0.3-1.1-0.4-1.6l-0.5-1.6c-0.1-0.5-0.3-1.1-0.5-1.6
		l-0.6-1.6l-0.3-0.8l-0.1-0.2l0-0.1c0,0.1,0,0,0,0l0,0l0,0l0-0.1l-0.2-0.4l-0.7-1.6c-0.4-1.1-0.9-2.1-1.4-3.2
		c-0.5-1.1-0.9-2.1-1.4-3.1c-0.5-1-1-2.1-1.4-3.1c-0.5-1-1-2.1-1.5-3.1c-0.5-1-1-2-1.6-3.1c-0.5-1-1.1-2-1.6-3c-0.5-1-1.1-2-1.7-3
		c-0.3-0.5-0.6-1-0.9-1.5c-0.3-0.5-0.6-1-0.9-1.4c-0.6-1-1.3-1.9-1.9-2.8l-1-1.3l-1.1-1.3l-0.2-0.2l0-0.3c-0.1-0.6-0.2-1.3-0.3-1.9
		c-0.1-0.7-0.3-1.3-0.4-2c-0.1-0.7-0.3-1.3-0.5-2l-0.5-1.9l-0.6-1.9l-0.7-1.9c-0.2-0.6-0.5-1.2-0.7-1.9c-0.1-0.3-0.2-0.6-0.4-0.9
		l-0.4-0.9l-0.4-0.9l-0.2-0.5l-0.2-0.4l-0.9-1.8c-0.3-0.6-0.7-1.2-1-1.8l-0.5-0.9c-0.2-0.3-0.4-0.6-0.6-0.8l-1.1-1.7l-1.2-1.6
		l-0.6-0.8l-0.7-0.8l-1.3-1.5l0-0.1c0,0,0,0,0,0c0,0,0,0-0.1,0c0,0-0.1-0.1-0.2-0.1c0,0-0.1,0-0.1,0l-0.1,0c-0.1,0-0.1,0-0.2-0.1
		c-0.1,0-0.1,0-0.2,0l-0.2,0c0,0-0.1,0-0.1,0l-0.1,0l-0.3,0l-0.1,0l0,0c-0.5,0-1.1-0.1-1.7-0.1c-0.6,0-1.1,0-1.7,0
		c-1.1,0-2.3,0.2-3.4,0.3c-2.3,0.4-4.5,1-6.5,2c-2,1-3.8,2.3-5.1,4l-0.1,0.2l0,0l0,0c0,0,0,0,0,0l-0.1,0.1l-0.2,0.3L86,16.1
		c-0.3,0.4-0.6,0.9-0.9,1.4c-0.3,0.5-0.6,1-0.8,1.4c-0.1,0.2-0.3,0.5-0.4,0.7l-0.4,0.7c-1,2-1.7,4.1-2.2,6.2
		c-0.5,2.2-0.9,4.4-1.1,6.6c-0.2,2.2-0.3,4.5-0.4,6.7c0,1.1,0,2.2,0,3.4l0,3.4c0,2.3,0.1,4.5,0.1,6.8c0,1.1,0.1,2.2,0.2,3.4
		c0.1,1.1,0.2,2.2,0.2,3.4l0.3,3.4L81,67l0.5,3.3l0.6,3.3c0.2,1.1,0.5,2.2,0.8,3.3c0.1,0.5,0.3,1.1,0.4,1.6l0.5,1.6l0.2,0.8l0.3,0.8
		l0.5,1.6c0.3,1.1,0.8,2.1,1.2,3.2c0.2,0.5,0.4,1,0.6,1.6l0.7,1.5l0.7,1.5l0.2,0.4l0.2,0.4l0.4,0.7l0.8,1.5c0.3,0.5,0.5,1,0.8,1.5
		l1.7,2.9l0.2,0.3l0,0.3c-0.1,1.2-0.2,2.5-0.2,3.7c-0.1,1.2-0.1,2.5-0.1,3.7c0,1.2,0,2.5,0,3.7c0,1.2,0.1,2.5,0.2,3.7l0.1,1.9
		c0,0.6,0.1,1.2,0.2,1.9l0.2,1.9c0.1,0.6,0.2,1.2,0.3,1.9c0.1,0.6,0.2,1.2,0.3,1.8l0.4,1.8c0.1,0.3,0.1,0.6,0.2,0.9l0.2,0.9l0.4,1.8
		c0.2,0.6,0.4,1.2,0.5,1.8c0.2,0.6,0.3,1.2,0.6,1.8l0.7,1.8l0.2,0.4l0.2,0.4l0.4,0.9l1.4,3.5c0.5,1.2,0.9,2.4,1.4,3.6
		c0.5,1.2,0.9,2.4,1.3,3.6l0.6,1.8l0.6,1.8c0.4,1.2,0.7,2.4,1.1,3.7c0.3,1.2,0.7,2.5,0.9,3.7l0-0.1c0.1,0.3,0.2,0.6,0.3,0.8l0.3,0.8
		c0.2,0.6,0.5,1.1,0.7,1.7c0.5,1.1,1,2.2,1.6,3.2c0.6,1,1.2,2.1,1.9,3c0.2,0.2,0.4,0.5,0.5,0.7c0.2,0.2,0.4,0.4,0.6,0.6
		c0.2,0.2,0.4,0.4,0.6,0.6l0.3,0.2l0.3,0.2l0.7,0.5l-0.4,0.7c-0.1,0.2-0.2,0.3-0.3,0.5c-0.1,0.2-0.2,0.3-0.2,0.5
		c-0.1,0.2-0.1,0.4-0.2,0.5c-0.1,0.2-0.1,0.4-0.2,0.5c-0.1,0.2-0.1,0.3-0.2,0.5c-0.1,0.2-0.1,0.4-0.1,0.6l-0.1,0.3l0,0.3l-0.1,0.6
		c-0.1,0.4-0.2,0.8-0.2,1.2c-0.1,0.4-0.1,0.8-0.1,1.1c0,0.2,0,0.3,0,0.5l0,0.2c0,0.1,0,0.1,0,0.2c0,0.1,0,0.1,0.1,0.2
		c0,0,0,0.1,0.1,0.1c0,0,0,0,0.1,0.1c0,0,0.1,0,0.1,0l0.6,0.7l-0.2,0.4c-0.1,0.1-0.1,0.3-0.2,0.5c-0.1,0.2-0.1,0.3-0.2,0.5
		c0,0.2-0.1,0.3-0.1,0.5c0,0.2-0.1,0.3-0.1,0.5l-0.1,0.5c0,0.2,0,0.3,0,0.5l0,0.3c0,0.1,0,0.2,0,0.2l0,0.5v0l0,0.3l-0.1,0.2
		c-0.9,1.8-1.6,3.7-2.3,5.7c-0.7,1.9-1.3,3.9-1.8,5.9c-1.1,3.9-1.9,8-2.3,12c-0.2,2-0.4,4.1-0.4,6.1c0,2,0,4.1,0.2,6.1
		c0.2,2,0.4,4.1,0.8,6c0.1,0.5,0.2,1,0.3,1.5l0.2,0.8c0,0.2,0.1,0.5,0.2,0.7l0.8,3c0.3,1,0.6,2,0.8,3c0.1,0.5,0.3,1,0.4,1.5l0.5,1.5
		c0.6,2,1.3,3.9,2.1,5.8c0.4,0.9,0.8,1.9,1.2,2.8l1.4,2.8l1.5,2.7c0.6,0.9,1.1,1.7,1.7,2.6c0.6,0.8,1.2,1.7,1.9,2.5l1,1.2l0.5,0.6
		l0.3,0.3l0.3,0.3l1.1,1.1c0.4,0.4,0.7,0.7,1.1,1.1l1.2,1c0.4,0.3,0.8,0.7,1.2,1l1.3,0.9l0.6,0.5c0.2,0.2,0.4,0.3,0.7,0.4l1.3,0.9
		c0.4,0.3,0.9,0.6,1.3,0.8c0.9,0.5,1.8,1.1,2.7,1.6l2.8,1.5L134.6,270.5z"/>
	<path id="Fill-3" class="st0" d="M105.3,231.9c-0.3-0.1-0.5,0.1-0.7,0.3c-0.2,0.1-0.4,0.3-0.6,0.4c-0.4,0.3-0.8,0.6-1.2,0.9
		c-0.4,0.3-0.8,0.6-1.2,1c-0.4,0.3-0.8,0.7-1.1,1c-0.4,0.4-0.7,0.7-1.1,1.1c-0.3,0.4-0.7,0.8-1,1.2c-0.3,0.4-0.7,0.8-1,1.2
		c-0.3,0.4-0.6,0.8-0.9,1.3c-0.3,0.4-0.5,0.9-0.8,1.3c-0.3,0.4-0.5,0.9-0.7,1.3c-0.2,0.5-0.4,0.9-0.6,1.4c-0.2,0.5-0.4,0.9-0.5,1.4
		c-0.2,0.5-0.3,1-0.4,1.4c-0.1,0.5-0.2,1-0.3,1.5c-0.1,0.5-0.2,1-0.2,1.5c-0.1,0.5-0.1,1-0.2,1.5l0,0l0-0.2c0.8,2.5,1.7,5.1,2.6,7.6
		c0.9,2.5,1.9,5,2.9,7.5c0.5,1.2,1,2.5,1.5,3.7c0.5,1.2,1.1,2.5,1.6,3.7c0.5,1.2,1.1,2.4,1.7,3.7c0.6,1.2,1.2,2.4,1.8,3.6
		c0.3,0.6,0.6,1.2,0.9,1.8c0.3,0.6,0.6,1.2,1,1.8l1,1.8l1,1.7c0.3,0.6,0.7,1.2,1,1.7c0.4,0.6,0.7,1.2,1.1,1.7l1.1,1.7l1.2,1.7
		c0.4,0.6,0.8,1.1,1.2,1.6l0.6,0.8l0.6,0.8c0.4,0.5,0.8,1.1,1.3,1.5c0.5,0.5,0.9,1,1.4,1.5c0.5,0.5,1,1,1.4,1.4l1.5,1.3l1.6,1.2
		l1.7,1.1l-0.2,0.3l-1.8-1.1l-1.7-1.2l-1.6-1.3c-0.5-0.5-1-1-1.5-1.4c-0.5-0.5-0.9-1-1.4-1.5c-0.5-0.5-0.9-1-1.3-1.5l-0.7-0.8
		l-0.6-0.8c-0.4-0.5-0.8-1.1-1.2-1.6l-1.2-1.7l-1.1-1.7c-0.4-0.6-0.7-1.1-1.1-1.7c-0.4-0.6-0.7-1.1-1.1-1.7l-1-1.7l-1-1.8
		c-0.3-0.6-0.6-1.2-1-1.8c-0.3-0.6-0.6-1.2-1-1.8c-0.6-1.2-1.2-2.4-1.8-3.6c-0.6-1.2-1.2-2.4-1.7-3.7c-0.6-1.2-1.1-2.5-1.7-3.7
		c-0.5-1.2-1.1-2.5-1.6-3.7c-1-2.5-2-5-3-7.5c-0.9-2.5-1.9-5-2.7-7.6l0-0.1l0-0.1v0c0.1-0.5,0.1-1,0.2-1.5c0.1-0.5,0.2-1,0.3-1.5
		c0.1-0.5,0.3-1,0.4-1.5c0.1-0.5,0.3-1,0.5-1.5c0.2-0.5,0.4-1,0.6-1.5c0.2-0.5,0.4-0.9,0.7-1.4c0.3-0.5,0.5-0.9,0.8-1.4
		c0.3-0.5,0.6-0.9,0.8-1.3c0.3-0.4,0.6-0.9,0.9-1.3c0.3-0.4,0.6-0.8,1-1.2c0.3-0.4,0.7-0.8,1.1-1.2c0.4-0.4,0.7-0.8,1.1-1.1
		c0.4-0.4,0.8-0.7,1.2-1.1c0.4-0.3,0.8-0.7,1.2-1c0.4-0.3,0.8-0.6,1.3-0.9c0.2-0.2,0.4-0.3,0.7-0.4c0.2-0.2,0.5-0.2,0.6-0.6
		L105.3,231.9z"/>
	<path id="Fill-5" class="st0" d="M116.2,299.2C116.2,299.2,116.2,299.2,116.2,299.2c-0.1,0-0.2,0-0.2-0.1c-0.1-0.1-0.2-0.1-0.2-0.1
		c0,0,0,0.1,0,0.2c0,0,0,0.1,0,0.2c0,0.1,0,0.1,0,0.2c0,0.1,0,0.1,0,0.2c0,0.1,0,0.2,0,0.2c0,0.2,0.1,0.3,0.1,0.5
		c0.1,0.4,0.3,0.8,0.5,1.3c0.1,0.2,0.2,0.5,0.4,0.7c0.1,0.1,0.1,0.2,0.2,0.4c0.1,0.1,0.1,0.2,0.2,0.4c0.1,0.2,0.3,0.5,0.5,0.8
		c0.2,0.3,0.3,0.5,0.5,0.8c0.2,0.3,0.4,0.5,0.5,0.8c0.2,0.3,0.4,0.5,0.6,0.8c0.2,0.3,0.4,0.5,0.6,0.8c0.2,0.3,0.4,0.5,0.7,0.8
		c0.4,0.5,0.9,1.1,1.3,1.6c0.4,0.5,0.9,1,1.3,1.5c0.4,0.5,0.9,0.9,1.3,1.4c0.4,0.4,0.8,0.8,1.2,1.2c1.5,1.5,2.5,2.4,2.5,2.4
		l-0.1,0.1c0,0-1-1-2.5-2.4c-0.4-0.4-0.8-0.8-1.2-1.2c-0.4-0.4-0.9-0.9-1.3-1.3c-0.4-0.5-0.9-1-1.4-1.4c-0.5-0.5-0.9-1-1.4-1.5
		c-0.2-0.3-0.5-0.5-0.7-0.8c-0.2-0.3-0.4-0.5-0.7-0.8c-0.2-0.3-0.4-0.5-0.6-0.8c-0.2-0.3-0.4-0.5-0.6-0.8c-0.2-0.3-0.4-0.5-0.6-0.8
		c-0.2-0.3-0.3-0.5-0.5-0.8c-0.1-0.1-0.2-0.2-0.2-0.4c-0.1-0.1-0.1-0.2-0.2-0.4c-0.1-0.2-0.3-0.5-0.4-0.7c-0.2-0.5-0.4-0.9-0.6-1.3
		c-0.1-0.2-0.1-0.4-0.2-0.6c0-0.1,0-0.2-0.1-0.3c0-0.1,0-0.2,0-0.3c0-0.1,0-0.2,0-0.2c0-0.1,0-0.2,0-0.2c0-0.1,0-0.1,0-0.2
		c0-0.1,0-0.1,0-0.2c0-0.1-0.1-0.3-0.1-0.4c0-0.1-0.1-0.1-0.1-0.1c0,0,0,0,0,0L116.2,299.2z"/>
	<path id="Fill-7" class="st0" d="M91.4,252c0,0-0.5-0.6-1.4-1.6c-0.9-1-2.2-2.5-3.9-4.2c-0.8-0.9-1.7-1.8-2.7-2.7c-1-1-2-2-3.1-3
		c-1.1-1-2.2-2.1-3.4-3.1c-1.2-1-2.4-2.1-3.6-3.1c-0.6-0.5-1.2-1-1.8-1.5c-0.6-0.5-1.2-1-1.9-1.4c-1.3-0.9-2.5-1.8-3.7-2.7
		c-1.2-0.8-2.4-1.6-3.6-2.4c-1.2-0.7-2.3-1.4-3.3-2c-0.5-0.3-1-0.6-1.5-0.8c-0.5-0.2-1-0.5-1.4-0.7c-0.4-0.2-0.8-0.4-1.2-0.6
		c-0.4-0.2-0.7-0.3-1.1-0.5c-0.6-0.3-1.2-0.5-1.5-0.6c-0.1,0-0.2-0.1-0.2-0.1c-0.1,0-0.2,0-0.2,0c-0.1,0.1-0.2,0.1-0.2,0.1l0.5-1.3
		c0,0,0,0.1,0.1,0.3c0,0.1,0.1,0.1,0.1,0.2c0.1,0.1,0.1,0.1,0.2,0.1c0.4,0.1,0.9,0.3,1.5,0.6c0.3,0.1,0.7,0.3,1.1,0.5
		c0.4,0.2,0.8,0.4,1.2,0.6c0.4,0.2,0.9,0.5,1.4,0.7c0.5,0.3,1,0.5,1.5,0.8c1.1,0.6,2.2,1.2,3.4,2c1.2,0.7,2.4,1.5,3.6,2.4
		c1.2,0.8,2.5,1.8,3.8,2.7c0.6,0.5,1.3,1,1.9,1.4c0.6,0.5,1.3,1,1.9,1.5c1.2,1,2.5,2,3.7,3c1.2,1,2.3,2,3.5,3c1.1,1,2.2,2,3.2,2.9
		c1,0.9,1.9,1.8,2.8,2.7c1.7,1.7,3.1,3.1,4,4.1c1,1,1.5,1.6,1.5,1.6L91.4,252z"/>
	<path id="Fill-9" class="st0" d="M91.3,97.5l-0.1,2.1l-0.1,1l0,0.5l0,0.5l-0.2,2.1c-0.1,0.7-0.2,1.4-0.3,2.1l-0.3,2.1l-0.4,2.1
		l-0.2,1l-0.2,1c-0.2,0.7-0.3,1.4-0.5,2l-0.5,2c-0.2,0.7-0.4,1.3-0.6,2c-0.2,0.7-0.4,1.3-0.7,2l-0.3,1l-0.4,1l-0.4,1l-0.4,1
		c-0.3,0.6-0.6,1.3-0.8,1.9c-0.3,0.6-0.6,1.3-0.9,1.9c-0.3,0.6-0.7,1.2-1,1.9l0-0.7c0.4,0.8,0.4,1.6,0.4,2.3c0,0.7-0.1,1.4-0.2,2
		c-0.2,1.3-0.6,2.6-0.9,3.9c-0.7,2.5-1.6,5-2.6,7.5c-1.9,4.9-4,9.8-6.2,14.6l-1.7,3.6l-0.9,1.8l-0.4,0.9l-0.1,0.2l-0.1,0.2l-0.2,0.5
		l-3,7.3c-0.5,1.2-1,2.4-1.4,3.7l-1.4,3.7l-0.7,1.8c-0.2,0.6-0.5,1.2-0.7,1.8l-1.3,3.7l-1.3,3.7l-1.2,3.7l-1.2,3.7
		c-0.4,1.2-0.7,2.5-1.1,3.8l-1.1,3.8c-0.4,1.3-0.7,2.5-1,3.8l-1,3.8l-0.9,3.8c-0.6,2.5-1.1,5.1-1.7,7.7c-0.3,1.3-0.5,2.6-0.7,3.9
		c-0.1,0.6-0.2,1.3-0.3,1.9l-0.3,1.9c-0.2,1.3-0.4,2.6-0.6,3.9c-0.2,1.3-0.4,2.6-0.5,3.9l-0.2,1.9l-0.2,1.9
		c-0.1,1.3-0.2,2.6-0.2,3.9l0-0.2v0c0.3,1,0.6,2,0.9,3c0.3,1,0.5,2,0.8,3c0.3,1,0.5,2,0.7,3.1c0.2,1,0.4,2,0.6,3.1
		c0.2,1,0.4,2.1,0.5,3.1c0.2,1,0.3,2.1,0.5,3.1l0.2,1.6l0.2,1.6l0.2,1.6l0.1,1.6l0.1,1.6l0,1.6l0,1.6l0,1.6l0,1.6l-0.1,1.6l-0.1,1.6
		c-0.1,0.5-0.1,1-0.1,1.5c-0.1,1-0.2,2.1-0.2,3.1c0,0.5,0,1-0.1,1.6c0,0.5,0,1,0,1.6l0,1.6c0,0.5,0,1,0,1.6c0,1,0.2,2.1,0.2,3.1
		c-0.1-1-0.3-2.1-0.3-3.1c0-0.5-0.1-1-0.1-1.6l0-1.6c0-0.5,0-1,0-1.6c0-0.5,0-1,0-1.6c0-1,0.1-2.1,0.1-3.1c0-0.5,0.1-1,0.1-1.6
		l0.1-1.5l0.1-1.5l0-1.6l0-1.6l-0.1-1.5l-0.1-1.5l-0.1-1.5l-0.2-1.5l-0.2-1.5l-0.2-1.5l-0.2-1.5c-0.2-1-0.3-2-0.5-3.1
		c-0.2-1-0.4-2-0.6-3c-0.2-1-0.5-2-0.7-3c-0.3-1-0.5-2-0.8-3c-0.3-1-0.6-2-0.8-3c-0.3-1-0.6-2-0.9-3v0l0-0.1l0-0.1
		c0-1.3,0.1-2.6,0.3-4l0.2-2l0.2-2c0.1-1.3,0.3-2.6,0.5-3.9c0.2-1.3,0.4-2.6,0.6-3.9l0.3-1.9c0.1-0.6,0.2-1.3,0.4-1.9
		c0.2-1.3,0.5-2.6,0.7-3.9c0.5-2.6,1-5.2,1.7-7.7l0.9-3.8l1-3.8c0.3-1.3,0.7-2.5,1-3.8l1.1-3.8c0.4-1.3,0.7-2.5,1.1-3.8l1.2-3.8
		l1.2-3.8l1.3-3.7l1.3-3.7c0.2-0.6,0.4-1.2,0.7-1.9l0.7-1.8l1.4-3.7c0.5-1.2,0.9-2.5,1.4-3.7l3-7.3l0.2-0.5l0.1-0.2l0,0l0-0.1l0-0.1
		l0.1-0.1l0.4-0.9l0.9-1.8l1.7-3.6c2.2-4.8,4.3-9.6,6.2-14.5c0.9-2.4,1.8-4.9,2.6-7.4c0.4-1.2,0.7-2.5,0.9-3.7
		c0.1-0.6,0.2-1.2,0.2-1.9c0-0.6,0-1.2-0.2-1.6l-0.2-0.3l0.2-0.3c0.3-0.6,0.7-1.2,1-1.8c0.3-0.6,0.6-1.2,0.9-1.8
		c0.3-0.6,0.6-1.2,0.8-1.9l0.4-0.9l0.4-1l0.4-1l0.3-1c0.2-0.6,0.4-1.3,0.6-2c0.2-0.7,0.4-1.3,0.6-2l0.5-2c0.2-0.7,0.3-1.3,0.5-2
		l0.2-1l0.2-1l0.4-2l0.3-2c0.1-0.7,0.2-1.4,0.2-2l0.2-2l0-0.5l0-0.5l0.1-1l0.1-2.1L91.3,97.5z"/>
	<path id="Fill-11" class="st0" d="M121.1,38.1l-10.5-6.9l0.1,0.1h0c-0.1-0.1-0.2-0.1-0.3-0.1c-0.1,0-0.2-0.1-0.2-0.1
		c-0.1-0.1-0.3-0.2-0.4-0.3c-0.2-0.2-0.4-0.4-0.6-0.6c-0.4-0.4-0.6-0.9-1-1.3c-0.2-0.5-0.5-0.9-0.8-1.4c-0.2-0.5-0.4-1-0.6-1.4
		l-0.3-0.7l-0.3-0.7c-0.2-0.5-0.3-1-0.5-1.5l-0.2-0.7l-0.2-0.8c-0.1-0.5-0.2-1-0.4-1.5c-0.1-0.5-0.2-1-0.3-1.5l-0.1-0.8l-0.1-0.8
		c-0.1-0.5-0.1-1-0.1-1.6c0-0.5,0-1,0-1.6c0.1-0.5,0.1-1,0.2-1.6l0.1-0.8l0.2-0.8c0.1-0.5,0.3-1,0.5-1.5c0.1-0.3,0.2-0.5,0.3-0.7
		c0.1-0.2,0.3-0.5,0.1-0.8l1,0.4c-0.4,0.1-0.4,0.4-0.5,0.6c-0.1,0.2-0.2,0.5-0.3,0.7c-0.2,0.5-0.3,1-0.4,1.5l-0.2,0.7l-0.1,0.8
		c-0.1,0.5-0.1,1-0.2,1.5c0,0.5,0,1,0,1.5c0,0.5,0,1,0.1,1.5l0.1,0.8l0.1,0.8c0.1,0.5,0.2,1,0.3,1.5c0.1,0.5,0.2,1,0.4,1.5l0.2,0.7
		l0.2,0.7c0.2,0.5,0.3,1,0.5,1.4l0.3,0.7l0.3,0.7c0.2,0.5,0.5,0.9,0.7,1.4c0.2,0.5,0.5,0.9,0.8,1.3c0.3,0.4,0.6,0.8,0.9,1.2
		c0.2,0.2,0.3,0.3,0.5,0.5c0.1,0.1,0.2,0.1,0.3,0.2c0,0,0.1,0.1,0.1,0.1c0,0,0.1,0,0.1,0h0l0.1,0.1l10.5,6.9L121.1,38.1z"/>
	<g id="Group-15" transform="translate(-0.000000, 25.161157)">
		<g id="Clip-14">
		</g>
		<defs>
			<filter id="Adobe_OpacityMaskFilter" filterUnits="userSpaceOnUse" x="-174.4" y="-19.5" width="244.8" height="396.1">
				<feColorMatrix  type="matrix" values="1 0 0 0 0  0 1 0 0 0  0 0 1 0 0  0 0 0 1 0"/>
			</filter>
		</defs>
		<mask maskUnits="userSpaceOnUse" x="-174.4" y="-19.5" width="244.8" height="396.1" id="mask-4">
			<g class="st1">
				<polygon id="path-3" class="st2" points="-158.2,-19.1 -158.2,368.7 97.2,368.7 97.2,-19.1 				"/>
			</g>
		</mask>
		<path id="Fill-13" class="st3" d="M79.2,3.5c-0.5-0.7-1-1.3-1.6-2c-0.5-0.7-1.1-1.3-1.7-1.9c-1.2-1.3-2.4-2.5-3.7-3.6
			c-1.3-1.1-2.7-2.2-4.1-3c-0.7-0.5-1.5-0.8-2.2-1.2c-0.8-0.3-1.5-0.7-2.4-0.9c-0.8-0.2-1.6-0.4-2.4-0.5l-0.3,0l-0.3,0l-0.7,0
			c-0.4,0-0.9,0-1.3,0c-0.4,0-0.8,0-1.3,0l-1.3,0.1c-0.4,0-0.8,0.1-1.3,0.2c-0.4,0.1-0.8,0.2-1.3,0.2c-0.8,0.2-1.7,0.4-2.5,0.7
			c-0.4,0.1-0.8,0.3-1.2,0.4c-0.4,0.2-0.8,0.3-1.1,0.5c-0.8,0.4-1.5,0.8-2.2,1.3c-0.7,0.5-1.3,1-2,1.6l-0.1,0.1l-0.1,0.1
			c-0.2,0.1-0.4,0.2-0.6,0.3c-0.2,0.1-0.4,0.3-0.6,0.4c-0.4,0.3-0.8,0.6-1.1,0.9c-0.7,0.6-1.4,1.3-1.9,2.1c-1.1,1.5-1.9,3.2-2.1,5
			c-0.3,1.9-0.5,3.9-0.8,5.9c-0.3,2-0.6,3.9-0.9,5.9l-0.5,2.9c-0.2,1-0.4,2-0.6,2.9l-0.3,1.5L34.7,24l-0.2,0.7l-0.4,1.5l-0.5,1.4
			l-0.9,2.8l-0.5,1.4l-0.5,1.4l-2,5.6c-0.7,1.9-1.3,3.7-2,5.6l-2,5.6l-2,5.6c-0.7,1.9-1.4,3.7-2.3,5.6c-0.9,1.8-1.9,3.6-3,5.3
			l-0.9,1.2L16.7,69c-0.3,0.4-0.6,0.8-0.9,1.2l-0.8,1.2c-0.6,0.8-1.1,1.6-1.6,2.5c-0.5,0.8-1.1,1.7-1.5,2.5
			c-0.2,0.4-0.5,0.8-0.7,1.3L10.3,79c-0.2,0.4-0.4,0.9-0.6,1.3c-0.1,0.1-0.1,0.2-0.2,0.3l-0.1,0.3l-0.2,0.6l0,0.1
			c-0.3,0.6-0.5,1.2-0.8,1.8c-0.3,0.6-0.6,1.2-1,1.8c-0.4,0.6-0.7,1.1-1,1.7c-0.1,0.3-0.3,0.5-0.4,0.8l-0.4,0.9
			c-0.3,0.6-0.4,1.2-0.6,1.8l-0.3,0.9l-0.2,0.5c-0.1,0.2-0.1,0.3-0.2,0.5c-0.1,0.2-0.1,0.3-0.2,0.5l-0.2,0.5
			c-0.2,0.3-0.3,0.6-0.5,0.9c-0.2,0.3-0.4,0.6-0.6,0.9l-0.3,0.4l-0.1,0.2l0,0c0,0,0-0.1,0,0l0,0l-0.1,0.1C1.6,97,1,98.1,0.5,99.3
			l-1.7,3.6c-0.6,1.2-1.1,2.4-1.7,3.6c-0.6,1.2-1.2,2.4-1.8,3.5l-0.9,1.8l-0.9,1.8c-0.6,1.2-1.3,2.3-2,3.5c-0.3,0.5-0.7,1.1-1,1.7
			l-0.9,1.7l-1.8,3.5c-2.4,4.7-4.9,9.3-7.3,14c-1.2,2.3-2.5,4.7-3.7,7c-0.6,1.2-1.3,2.3-1.9,3.5c-0.6,1.2-1.3,2.3-1.9,3.5
			c-1.3,2.3-2.6,4.6-4,6.8c-0.7,1.1-1.4,2.3-2.1,3.4l-1.1,1.7c-0.4,0.6-0.8,1.1-1.2,1.6c-0.8,1.1-1.6,2.1-2.4,3.2l-2.4,3.2
			c-1.6,2.1-3.2,4.2-4.8,6.3c-0.4,0.5-0.9,1-1.3,1.6c-0.4,0.5-0.9,1-1.4,1.5c-1,1-2,1.9-3,2.8l-3.1,2.6c-0.5,0.4-1,0.9-1.5,1.3
			l-1.4,1.4l0,0l-0.1,0.1l-0.1,0.1c-2,1.1-4.1,2.4-5.9,3.7c-1,0.7-1.8,1.5-2.7,2.2c-0.9,0.8-1.7,1.6-2.6,2.4
			c-3.4,3.3-6.6,6.7-9.5,10.3l-2.2,2.7c-0.7,0.9-1.4,1.9-2.1,2.8c-1.4,1.9-2.9,3.7-4.3,5.6c-2.8,3.7-5.5,7.5-8,11.4
			c-2.6,3.9-4.9,7.9-7.3,11.9c-1.1,2-2.3,4-3.3,6.1l-1.6,3.1l-1.5,3.1c-0.5,1-1,2.1-1.5,3.1l-1.5,3.2c-1,2.1-1.9,4.2-2.8,6.3
			l-1.4,3.2c-0.4,1-0.8,2.1-1.2,3.2c-0.3,1.1-0.6,2.2-0.7,3.3l0,0.3l0,0.2l-0.1,0.4l-0.2,0.9l-0.4,1.7c-0.5,2.3-1.2,4.5-1.9,6.7
			l-0.6,1.7c-0.2,0.6-0.5,1.1-0.7,1.6l-1.4,3.2l-0.7,1.6c-0.2,0.5-0.4,1.1-0.6,1.6l-1.3,3.2c-0.8,2.2-1.6,4.3-2.5,6.5
			c-0.4,1.1-0.8,2.2-1.3,3.2c-0.5,1.1-1,2.1-1.5,3.2c-1,2.1-2,4.2-3.1,6.3c-2.1,4.1-4.4,8.2-6.9,12.2c-1.3,2-2.6,3.9-4,5.8
			c-0.7,1-1.5,1.9-2.2,2.8l-2.1,2.8l-8.5,11.2l-16.9,22.4l-0.7-0.5l16.8-22.5l8.4-11.2l2.1-2.8c0.7-0.9,1.5-1.8,2.2-2.7
			c1.4-1.8,2.7-3.8,3.9-5.8c2.5-3.9,4.7-8,6.8-12.1c1.1-2.1,2.1-4.1,3.1-6.2c0.5-1,1-2.1,1.4-3.2c0.5-1.1,0.9-2.1,1.3-3.2
			c0.8-2.1,1.6-4.3,2.4-6.5l1.3-3.3c0.2-0.5,0.4-1.1,0.6-1.6l0.7-1.6l1.4-3.2c0.2-0.5,0.5-1,0.6-1.6l0.6-1.6
			c0.7-2.2,1.3-4.4,1.8-6.6l0.4-1.7l0.2-0.8l0.1-0.4l0-0.2c0,0,0-0.1,0,0l0-0.1l0-0.1c0.2-1.2,0.4-2.3,0.8-3.5
			c0.3-1.1,0.7-2.2,1.2-3.3l1.4-3.2c0.9-2.1,1.8-4.3,2.8-6.4l1.5-3.2c0.5-1.1,1-2.1,1.5-3.1l1.5-3.1l1.6-3.1
			c1.1-2.1,2.2-4.1,3.3-6.2c2.3-4.1,4.7-8.1,7.3-12c2.6-3.9,5.2-7.8,8.1-11.5c1.4-1.9,2.8-3.7,4.3-5.6c0.7-0.9,1.4-1.8,2.1-2.8
			l2.2-2.8c3-3.7,6.2-7.1,9.6-10.4c0.8-0.8,1.7-1.6,2.6-2.4c0.9-0.8,1.8-1.6,2.8-2.3l0.2-0.1l0.1-0.1c0.1-0.1,0,0,0.1-0.1l0,0
			l0.4-0.3l0.8-0.5l0.8-0.5l0.8-0.5c1-0.6,2-1.2,3.1-1.8l-0.2,0.2l0,0l1.5-1.4c0.5-0.5,1-0.9,1.5-1.4l3.1-2.6c1-0.9,2-1.7,2.9-2.7
			c0.4-0.5,0.9-1,1.3-1.4c0.4-0.5,0.8-1,1.2-1.5c1.6-2.1,3.2-4.2,4.8-6.3l2.4-3.2c0.8-1.1,1.6-2.1,2.4-3.2c0.4-0.5,0.8-1.1,1.1-1.6
			l1.1-1.6c0.7-1.1,1.4-2.2,2.1-3.3c1.4-2.2,2.7-4.5,4-6.8c0.7-1.1,1.3-2.3,1.9-3.4c0.6-1.1,1.3-2.3,1.9-3.5
			c1.3-2.3,2.5-4.6,3.7-6.9c2.5-4.6,4.9-9.3,7.3-14l1.9-3.5l1-1.8c0.3-0.6,0.7-1.1,1-1.7c0.6-1.1,1.3-2.2,1.9-3.4l0.9-1.7l0.9-1.8
			c0.6-1.2,1.2-2.3,1.8-3.5c0.6-1.2,1.2-2.4,1.7-3.5l1.7-3.6c0.6-1.2,1.2-2.4,1.7-3.6l0.1-0.1l0,0c0,0,0-0.1,0-0.1l0-0.1l0.2-0.2
			l0.3-0.4c0.2-0.3,0.4-0.5,0.5-0.8c0.2-0.3,0.3-0.5,0.5-0.8l0.2-0.4l0.2-0.4c0.1-0.1,0.1-0.3,0.2-0.4l0.2-0.5l0.3-0.9
			c0.2-0.6,0.4-1.3,0.7-1.9l0.4-0.9c0.1-0.3,0.3-0.6,0.5-0.9c0.3-0.7,0.7-1.2,1-1.7c0.3-0.5,0.6-1.1,0.9-1.7
			c0.3-0.6,0.6-1.2,0.8-1.8l0,0.1l0.3-0.8l0.1-0.4c0-0.1,0.1-0.2,0.2-0.4c0.2-0.5,0.4-0.9,0.7-1.4l0.7-1.3c0.2-0.4,0.5-0.9,0.8-1.3
			c0.5-0.9,1.1-1.7,1.6-2.6c0.6-0.8,1.1-1.7,1.7-2.5l0.9-1.2c0.3-0.4,0.6-0.8,0.9-1.2l0.9-1.2l0.9-1.2c1.1-1.6,2-3.3,2.9-5.1
			c0.8-1.8,1.5-3.6,2.2-5.4l2-5.6l2-5.6c0.7-1.9,1.4-3.7,2-5.6l2-5.6l0.5-1.4l0.5-1.4l0.9-2.8l0.5-1.4l0.4-1.4l0.2-0.7l0.2-0.7
			l0.3-1.4c0.2-1,0.4-1.9,0.6-2.9l0.5-2.9c0.3-1.9,0.6-3.9,0.9-5.8C35.7,7.9,36,5.9,36.3,4c0.3-2.1,1.2-4.1,2.5-5.8
			c0.6-0.8,1.4-1.6,2.2-2.3c0.4-0.3,0.8-0.7,1.3-1c0.2-0.2,0.4-0.3,0.7-0.5c0.2-0.1,0.4-0.3,0.7-0.4l-0.2,0.1
			c0.7-0.6,1.4-1.2,2.1-1.7c0.8-0.5,1.6-1,2.4-1.4c0.4-0.2,0.8-0.4,1.3-0.6c0.4-0.2,0.9-0.3,1.3-0.5c0.9-0.3,1.8-0.5,2.7-0.7
			c0.5-0.1,0.9-0.2,1.4-0.2c0.5-0.1,0.9-0.1,1.4-0.2l1.4-0.1c0.5,0,0.9,0,1.4,0c0.5,0,0.9,0,1.4,0l0.7,0l0.4,0l0.4,0
			c1,0.1,1.9,0.3,2.8,0.5c0.9,0.3,1.8,0.6,2.6,1c0.8,0.4,1.6,0.8,2.4,1.3c1.6,0.9,3,2,4.3,3.2c1.3,1.2,2.6,2.4,3.8,3.7
			c0.6,0.7,1.2,1.3,1.7,2c0.6,0.7,1.1,1.4,1.6,2.1L79.2,3.5z"/>
	</g>
	<path id="Fill-16" class="st0" d="M43.9,19.4l0.1,0.2l0,0.1c0,0,0.1,0.1,0.1,0.1l0.1,0l0.3,0c0.2,0,0.4,0,0.6,0c0.4,0,0.8,0,1.2,0
		c0.8,0,1.5,0.1,2.3,0.1c0.8,0.1,1.5,0.2,2.3,0.3c0.4,0.1,0.8,0.1,1.1,0.2l1.1,0.2l1.1,0.3l1.1,0.3c0.7,0.2,1.5,0.5,2.2,0.8
		c0.4,0.1,0.7,0.3,1.1,0.4c0.4,0.1,0.7,0.3,1.1,0.5c0.7,0.3,1.4,0.7,2,1.1l1,0.6c0.3,0.2,0.6,0.4,1,0.6c0.3,0.2,0.6,0.5,0.9,0.7
		c0.3,0.2,0.6,0.5,0.9,0.7l0.9,0.8c0.3,0.3,0.5,0.5,0.8,0.8c0.1,0.1,0.3,0.3,0.4,0.4l0.4,0.4c0.3,0.3,0.5,0.6,0.8,0.9
		c0.5,0.6,1,1.2,1.4,1.8c0.2,0.3,0.4,0.6,0.6,0.9l0.6,1l0.3,0.5c0.1,0.2,0.2,0.3,0.3,0.5l0.5,1c0.3,0.7,0.6,1.4,0.9,2.1l0,0.1l0,0.1
		c0,1.3-0.1,2.5-0.1,3.8c0,1.3-0.1,2.5-0.2,3.8c-0.1,1.3-0.2,2.5-0.3,3.8l-0.1,1l0,0.5l0,0.2l0,0.1l0,0.1c-0.1,0.6-0.2,1.2-0.4,1.9
		c-0.3,1.3-0.8,2.5-1.4,3.7c-0.6,1.1-1.3,2.2-2,3.3c-0.4,0.5-0.8,1.1-1.2,1.6l-0.6,0.8l-0.3,0.4l-0.3,0.4l-0.7,0.7
		c-0.2,0.2-0.5,0.5-0.7,0.7c-0.3,0.2-0.5,0.5-0.8,0.7l-0.8,0.6l-0.2,0.2L63,66l0,0l-0.1,0l-0.1,0l-0.4,0.2c-0.2,0.1-0.3,0.2-0.5,0.2
		l-0.3,0.1l-0.2,0.1l-0.5,0.2l-0.5,0.2c-0.3,0.1-0.7,0.2-1,0.3c-1.3,0.3-2.7,0.5-4,0.7c-2.7,0.3-5.3,0.3-8,0.2c-2.7-0.1-5.3-0.4-8-1
		c-1.3-0.3-2.6-0.7-3.9-1.2c-0.6-0.3-1.2-0.6-1.8-1c-0.6-0.4-1.1-0.9-1.5-1.6l0.1,0.1c-0.2-0.1-0.2-0.2-0.3-0.3
		c-0.1-0.1-0.1-0.2-0.2-0.3c-0.1-0.2-0.2-0.4-0.3-0.6c-0.1-0.2-0.1-0.4-0.2-0.6c-0.1-0.2-0.1-0.4-0.1-0.7c0-0.2-0.1-0.4-0.1-0.7
		c0-0.2,0-0.4,0-0.7c0-0.2,0-0.4,0-0.6l0-0.6c0-0.2,0-0.4,0-0.6c0-0.2,0-0.4,0.1-0.6l0.1-0.6c0-0.2,0.1-0.4,0.1-0.6l0.1-0.6
		c0-0.2,0.1-0.4,0.1-0.6l0.3-1.2l1.1,0.2l-0.3,1.2c-0.1,0.2-0.1,0.4-0.1,0.6l-0.1,0.6c0,0.2-0.1,0.4-0.1,0.6l-0.1,0.6
		c0,0.2,0,0.4-0.1,0.6c0,0.2,0,0.4,0,0.6l0,0.6c0,0.2,0,0.4,0,0.6c0,0.2,0,0.4,0,0.6c0,0.2,0,0.4,0.1,0.6c0,0.2,0.1,0.4,0.1,0.6
		c0,0.2,0.1,0.4,0.2,0.5c0.1,0.2,0.1,0.3,0.2,0.5c0,0.1,0.1,0.1,0.1,0.2c0,0.1,0.1,0.1,0.1,0.1l0.1,0.1c0.3,0.5,0.7,0.8,1.2,1.2
		c0.5,0.3,1,0.6,1.6,0.9c1.2,0.5,2.4,0.9,3.7,1.1c2.5,0.6,5.1,0.8,7.7,1c2.6,0.1,5.2,0.1,7.8-0.2c1.3-0.1,2.6-0.3,3.8-0.6
		c0.3-0.1,0.6-0.2,0.9-0.3l0.5-0.1l0.4-0.2l0.2-0.1l0.2-0.1c0.1-0.1,0.3-0.1,0.4-0.2l0.4-0.2l0.1,0l0,0c0,0,0,0,0,0l0,0l0.1-0.1
		l0.2-0.1l0.8-0.6c0.3-0.2,0.5-0.4,0.7-0.6c0.2-0.2,0.5-0.4,0.7-0.6l0.6-0.7l0.3-0.3l0.3-0.4l0.6-0.7c0.4-0.5,0.8-1,1.1-1.5
		c0.7-1.1,1.4-2.1,2-3.2c0.6-1.1,1.1-2.2,1.3-3.4c0.2-0.6,0.2-1.2,0.4-1.8l0-0.1l0,0c0,0,0,0,0,0l0,0l0-0.1l0-0.2l0-0.5l0.1-0.9
		c0.1-1.3,0.2-2.5,0.3-3.8c0.1-1.3,0.2-2.5,0.2-3.8c0.1-1.3,0.1-2.5,0.2-3.8l0,0.2c-0.3-0.7-0.6-1.3-0.9-2l-0.5-1
		c-0.1-0.2-0.2-0.3-0.2-0.5l-0.3-0.5l-0.5-0.9c-0.2-0.3-0.4-0.6-0.6-0.9c-0.4-0.6-0.9-1.2-1.3-1.8c-0.2-0.3-0.5-0.6-0.7-0.8L66.9,29
		c-0.1-0.1-0.3-0.3-0.4-0.4l-0.8-0.8l-0.8-0.8c-0.3-0.3-0.6-0.5-0.8-0.7c-0.3-0.2-0.6-0.5-0.9-0.7c-0.3-0.2-0.6-0.4-0.9-0.7
		l-0.9-0.6c-0.6-0.4-1.3-0.8-2-1.1c-0.3-0.2-0.7-0.3-1-0.5c-0.3-0.2-0.7-0.3-1-0.5c-0.7-0.3-1.4-0.5-2.1-0.8l-1.1-0.3L53,20.9
		l-1.1-0.2c-0.4-0.1-0.7-0.1-1.1-0.2c-0.8-0.1-1.5-0.2-2.3-0.3c-0.8-0.1-1.5-0.1-2.3-0.1c-0.4,0-0.8,0-1.1,0c-0.2,0-0.4,0-0.6,0
		l-0.3,0l-0.1,0c0,0,0,0-0.1,0.1l0,0.1l0,0.2L43.9,19.4z"/>
	<path id="Fill-18" class="st0" d="M201.7,334.7l-1.6-0.8c6.6-13,5.4-24.5,3.9-28.7l0-0.1c-3.2-15.7-1.8-40.3-1.8-40.5l0-0.1
		c2.9-17,6.5-42,3.4-62.5c-1.3-8.6-2.3-19.4-1.8-23.5c0.4-3.6-0.4-8.3-0.4-8.4l0-0.2l0-0.2c0.9-3.9,0-5.3,0-5.3l-0.2-0.3l0.1-0.3
		c0.5-3.9-0.8-5.1-0.8-5.1l-0.6-0.5l0.4-0.6c0.2-0.4-0.3-2.4-1-4.1l-0.1-0.2c-1.1-4.6-2-7-2-7l0-0.1l0-0.1c-0.7-5.3-4.4-9-4.4-9.1
		l-0.3-0.3v-0.4c0-2.5-2.1-5.1-2.1-5.1l-0.2-0.2l0-0.3c0-1.1-1.2-3.4-2-4.6l-0.1-0.1l0-0.1c-8.5-28.4-26.4-60.5-26.6-60.8l-0.1-0.2
		v-0.2c0-2.7-1.3-4.6-1.3-4.6l-0.2-0.2l0-0.3c0-0.8-1-5-1.6-7.6c-5.8-17.2-15.6-30.8-15.7-31l-0.1-0.2l0-0.2
		c-4.4-23.7-10.5-34.3-10.6-34.4c-0.2-0.3-0.3-0.4-0.4-0.4l-0.2,0.1l-0.4-0.2c-8-4.3-15.4-3.7-15.4-3.7c-7,0.6-12.7,5.3-16.9,13.7
		C97.1,2.4,96,8.7,96,8.8l-1.8-0.3c0-0.3,1.1-6.6,4.4-13.3c4.4-8.9,10.8-14,18.4-14.7c0.3,0,7.9-0.7,16.3,3.8c0.5,0,1.2,0.2,1.9,1.2
		c1,1.4,6.8,13.1,10.8,34.9c1.1,1.6,10.3,14.9,15.9,31.3l0,0.1c0.3,1,1.5,6.1,1.6,7.7c0.4,0.6,1.5,2.6,1.5,5.2
		c1.5,2.7,18.4,33.5,26.6,60.9c0.4,0.6,2,3.3,2.2,5.1c0.5,0.7,2.2,3.1,2.3,5.6c0.9,1,4,4.7,4.7,9.7c0.2,0.5,1.1,2.9,2,7.1
		c0.5,1.1,1.4,3.4,1.1,4.9c0.6,0.8,1.4,2.5,1,5.9c0.4,0.7,1,2.6,0.1,6.2c0.2,0.9,0.9,5.2,0.4,8.7c-0.5,3.9,0.6,14.8,1.8,23.1
		c1.5,9.9,2.7,27.2-3.4,62.9c-0.1,1.2-1.3,24.8,1.8,40C206.1,305.8,210.1,318.3,201.7,334.7"/>
	<path id="Fill-20" class="st0" d="M76.3,23.3l-1.1,0c0,0,0.1-5,1.5-10.9c1.9-7.9,4.9-13.5,9.2-16.7c10.1-7.6,16-5,16.3-4.9
		l-0.5,0.9c0,0-1.4-0.6-3.9-0.3c-2.4,0.3-6.2,1.3-11.2,5.1C77,3.8,76.3,23.1,76.3,23.3"/>
	<path id="Fill-22" class="st0" d="M144.8,21c-0.8-0.8-1.7-1.7-2.4-2.5c-0.4-0.4-0.8-0.9-1.2-1.3l-1.1-1.3l-1.1-1.3
		c-0.4-0.4-0.7-0.9-1.1-1.4c-0.4-0.4-0.7-0.9-1.1-1.4c-0.4-0.5-0.7-0.9-1-1.4c-0.3-0.5-0.7-0.9-1-1.4l-1-1.4c-0.3-0.5-0.6-1-0.9-1.5
		c-0.3-0.5-0.6-1-0.9-1.5L131,3.2c-0.3-0.5-0.5-1-0.8-1.5l-0.4-0.8l-0.4-0.8l-0.7-1.6l0,0l0,0l-1.3-3.6l-0.1-0.2l0.2-0.2l0,0
		c1.1-1.5,2.2-3,3.1-4.5c0.5-0.8,1-1.5,1.4-2.3c0.2-0.4,0.4-0.8,0.6-1.2c0.1-0.2,0.1-0.4,0.2-0.6c0-0.2,0.1-0.4,0-0.5l0.6-0.2
		c0.1,0.3,0,0.6,0,0.8c0,0.2-0.1,0.5-0.2,0.7c-0.2,0.4-0.3,0.9-0.5,1.3c-0.4,0.8-0.9,1.6-1.3,2.4c-0.5,0.8-1,1.6-1.5,2.4
		c-0.5,0.8-1,1.5-1.5,2.3l0,0l0.1-0.5l1.3,3.6l0,0l0.7,1.5l0.4,0.8l0.4,0.8c0.3,0.5,0.5,1,0.8,1.5l0.9,1.5c0.3,0.5,0.6,1,0.9,1.5
		c0.3,0.5,0.6,1,0.9,1.4l1,1.4c0.3,0.5,0.7,0.9,1,1.4c0.3,0.5,0.7,0.9,1,1.4c0.3,0.5,0.7,0.9,1.1,1.4c0.4,0.4,0.7,0.9,1.1,1.3
		l1.1,1.3l1.1,1.3c0.4,0.4,0.8,0.9,1.2,1.3c0.8,0.8,1.6,1.7,2.4,2.5L144.8,21z"/>
	<path id="Fill-24" class="st0" d="M102.9,219.9C102.9,219.9,102.9,219.9,102.9,219.9c-0.2,0.1-0.2,0.1-0.4,0.2
		c-0.2,0.1-0.6,0.3-1,0.5c-0.4,0.3-0.9,0.6-1.5,1c-0.6,0.4-1.2,0.9-1.8,1.4c-0.6,0.6-1.3,1.2-1.9,1.9c-0.6,0.7-1.2,1.5-1.8,2.4
		c-0.3,0.4-0.6,0.9-0.8,1.4c-0.3,0.5-0.5,1-0.7,1.4c-0.2,0.5-0.4,1-0.6,1.5l-0.3,0.8c-0.1,0.3-0.2,0.5-0.3,0.8
		c-0.2,0.5-0.3,1.1-0.4,1.6c-0.1,0.3-0.1,0.5-0.2,0.8c-0.1,0.3-0.1,0.5-0.1,0.8c0,0.3-0.1,0.5-0.1,0.8c0,0.3-0.1,0.5-0.1,0.8
		c0,0.3-0.1,0.5-0.1,0.8c0,0.3,0,0.5-0.1,0.8c-0.1,1-0.1,2-0.1,3c0,0.9,0,1.8,0.1,2.7c0,0.4,0.1,0.8,0.1,1.2
		c0.1,0.4,0.1,0.7,0.1,1.1c0,0.3,0.1,0.6,0.1,0.9c0,0.3,0.1,0.6,0.1,0.8c0.1,0.5,0.1,0.9,0.2,1.1c0.1,0.3,0.2,0.4,0.2,0.4l-0.7,0.1
		c0,0,0.1-0.2,0-0.4c0-0.3-0.1-0.6-0.2-1.1c0-0.2-0.1-0.5-0.1-0.8c0-0.3-0.1-0.6-0.1-0.9c0-0.3-0.1-0.7-0.1-1.1
		c0-0.4-0.1-0.8-0.1-1.2c-0.1-0.8-0.1-1.7-0.1-2.7c0-1,0-2,0.1-3c0-0.3,0-0.5,0.1-0.8c0-0.3,0.1-0.5,0.1-0.8c0-0.3,0.1-0.5,0.1-0.8
		c0-0.3,0.1-0.5,0.1-0.8c0.1-0.3,0.1-0.5,0.1-0.8c0.1-0.3,0.1-0.5,0.2-0.8c0.1-0.5,0.3-1.1,0.4-1.6c0.1-0.3,0.2-0.5,0.3-0.8l0.3-0.8
		c0.2-0.5,0.4-1,0.7-1.5c0.2-0.5,0.5-1,0.8-1.5c0.3-0.5,0.5-0.9,0.8-1.4c0.6-0.9,1.2-1.7,1.8-2.5c0.6-0.8,1.3-1.4,1.9-2
		c0.6-0.6,1.3-1.1,1.8-1.5c0.6-0.4,1.1-0.8,1.5-1c0.4-0.3,0.8-0.5,1-0.6c0.1-0.1,0.2-0.1,0.3-0.1c0.1,0,0.1,0,0.1,0L102.9,219.9z"/>
	<path id="Fill-26" class="st0" d="M67.8,171.6c0,0,0,0.2-0.1,0.6c0,0.4-0.1,1-0.1,1.7c0,0.8,0,1.7,0,2.7c0,1,0.1,2.2,0.3,3.5
		c0.2,1.3,0.4,2.7,0.8,4.1c0.4,1.4,0.9,2.9,1.5,4.4c0.7,1.5,1.5,3,2.5,4.3c1,1.4,2.2,2.7,3.5,3.8c1.3,1.1,2.9,2.1,4.4,2.8
		c0.4,0.2,0.8,0.4,1.2,0.5c0.4,0.2,0.8,0.3,1.2,0.5c0.4,0.2,0.7,0.3,1.2,0.3c0.4,0.1,0.8,0.1,1.3,0.2c3.4,0.4,6.5,0.6,9.3,0.6
		c1.4,0,2.6-0.1,3.7-0.1c1.1-0.1,2.1-0.2,2.8-0.3c0.8-0.1,1.4-0.2,1.8-0.3c0.1,0,0.2,0,0.3-0.1c0.1,0,0.1-0.1,0.2-0.1
		c0.1-0.1,0.1-0.2,0.1-0.2l0.3,1.4c0,0-0.1-0.1-0.2-0.2c-0.1,0-0.1-0.1-0.2-0.1c-0.1,0-0.2,0-0.3,0c-0.4,0.1-1,0.2-1.8,0.3
		c-0.8,0.1-1.8,0.2-2.9,0.3c-1.1,0.1-2.4,0.2-3.8,0.2c-2.8,0-6-0.1-9.4-0.5c-0.4-0.1-0.9-0.1-1.3-0.2c-0.4,0-1-0.2-1.3-0.4
		c-0.4-0.2-0.8-0.3-1.3-0.5c-0.4-0.2-0.8-0.4-1.2-0.6c-1.6-0.8-3.2-1.8-4.6-2.9c-1.4-1.2-2.7-2.5-3.7-3.9c-1.1-1.4-1.9-3-2.6-4.5
		c-0.7-1.5-1.2-3.1-1.6-4.5c-0.4-1.5-0.7-2.9-0.9-4.2c-0.4-2.6-0.5-4.9-0.5-6.4c0-0.8,0-1.4,0.1-1.8c0-0.2,0-0.4,0-0.5
		c0-0.1,0-0.2,0-0.2L67.8,171.6z"/>
	<path id="Fill-28" class="st0" d="M76.2,198c0,0-0.1,0-0.4,0.1c-0.2,0.1-0.6,0.2-1,0.3c-0.4,0.1-1,0.4-1.6,0.6
		c-0.6,0.3-1.3,0.6-2,1c-0.7,0.4-1.4,0.8-2.2,1.4c-0.7,0.5-1.5,1.1-2.2,1.8c-0.4,0.3-0.7,0.7-1.1,1c-0.3,0.4-0.7,0.7-1,1.1
		c-0.3,0.4-0.7,0.8-0.9,1.2c-0.1,0.2-0.3,0.4-0.4,0.6l-0.4,0.7l-0.2,0.3l-0.2,0.3l-0.4,0.7c-0.2,0.5-0.4,0.9-0.7,1.4
		c-0.2,0.5-0.4,1-0.5,1.4c-0.1,0.5-0.3,1-0.4,1.4c-0.1,0.5-0.2,0.9-0.3,1.4c-0.1,0.5-0.2,0.9-0.2,1.4c-0.1,0.4-0.1,0.9-0.2,1.3
		c0,0.2,0,0.4-0.1,0.6c0,0.2,0,0.4,0,0.6c0,0.4,0,0.8-0.1,1.1c0,0.4,0,0.7,0,1c0,0.6,0,1.2,0,1.7c0,0.5,0,0.8,0.1,1.1
		c0,0.2,0.2,0.4,0.2,0.4l-1.4,0.1c0,0,0.2-0.2,0.2-0.4c0-0.3,0-0.6-0.1-1.1c0-0.5,0-1,0-1.7c0-0.3,0-0.7,0-1c0-0.4,0-0.8,0.1-1.2
		c0-0.2,0-0.4,0-0.6c0-0.2,0-0.4,0.1-0.6c0.1-0.4,0.1-0.9,0.2-1.3c0.1-0.5,0.2-0.9,0.2-1.4c0.1-0.5,0.2-1,0.3-1.5
		c0.1-0.5,0.3-1,0.4-1.5c0.2-0.5,0.4-1,0.6-1.5c0.2-0.5,0.4-1,0.7-1.5l0.4-0.7l0.2-0.4l0.2-0.4l0.4-0.7c0.1-0.2,0.3-0.5,0.5-0.7
		c0.3-0.5,0.6-0.9,1-1.3c0.3-0.4,0.7-0.8,1.1-1.2c0.4-0.4,0.7-0.8,1.1-1.1c0.8-0.7,1.6-1.3,2.3-1.9c0.8-0.6,1.6-1,2.3-1.5
		c0.7-0.4,1.4-0.8,2.1-1.1c0.6-0.3,1.2-0.5,1.7-0.7c0.5-0.2,0.8-0.3,1.1-0.4c0.3-0.1,0.4-0.1,0.4-0.1L76.2,198z"/>
	<path id="Fill-30" class="st0" d="M91.4,98.5c0,0,1.7-0.2,4.3-0.7c0.6-0.1,1.3-0.2,2.1-0.4c0.7-0.1,1.5-0.3,2.3-0.5
		c0.8-0.2,1.6-0.4,2.4-0.6c0.8-0.2,1.7-0.4,2.5-0.6c0.8-0.2,1.7-0.5,2.5-0.7c0.8-0.3,1.6-0.5,2.4-0.7c0.8-0.3,1.5-0.5,2.2-0.8
		c0.7-0.3,1.3-0.5,2-0.8c0.6-0.3,1.1-0.5,1.6-0.7c0.5-0.2,0.9-0.4,1.2-0.6c0.7-0.3,1.1-0.5,1.1-0.5s-0.4,0.2-1,0.6
		c-0.3,0.2-0.7,0.4-1.2,0.6c-0.5,0.2-1,0.5-1.6,0.8c-0.6,0.3-1.2,0.5-1.9,0.8c-0.7,0.3-1.4,0.6-2.2,0.9c-0.8,0.3-1.6,0.6-2.4,0.8
		c-0.8,0.3-1.6,0.5-2.5,0.8c-0.8,0.2-1.7,0.5-2.5,0.7c-0.8,0.2-1.6,0.5-2.4,0.7c-0.8,0.2-1.6,0.4-2.3,0.6c-0.7,0.2-1.4,0.3-2.1,0.5
		c-2.6,0.6-4.3,0.9-4.3,0.9L91.4,98.5z"/>
	<path id="Fill-32" class="st0" d="M111.4,169.6C111.4,169.6,111.4,169.6,111.4,169.6c0.1,0,0.1,0.1,0.1,0.1c0,0,0.1,0.1,0.2,0.1
		c0.1,0,0.2,0.1,0.3,0.1c0.2,0.1,0.5,0.2,0.8,0.3c0.2,0.1,0.3,0.1,0.5,0.1c0.2,0,0.4,0.1,0.6,0.1c0.2,0,0.4,0.1,0.7,0.1
		c0.2,0,0.5,0.1,0.7,0.1c0.5,0.1,1,0.1,1.6,0.1c0.6,0,1.1,0,1.7,0.1c0.6,0,1.2,0,1.8,0c0.6,0,1.2-0.1,1.8-0.1c0.6,0,1.2-0.1,1.7-0.1
		c1.1-0.1,2.2-0.2,3-0.3c1.8-0.2,3-0.4,3-0.4s-1.2,0.2-2.9,0.6c-0.9,0.1-1.9,0.3-3,0.5c-0.6,0.1-1.1,0.1-1.7,0.2
		c-0.6,0.1-1.2,0.1-1.8,0.2c-0.6,0-1.2,0.1-1.8,0.1c-0.6,0-1.2,0-1.7,0c-0.6,0-1.1,0-1.6-0.1c-0.3,0-0.5,0-0.8-0.1
		c-0.2,0-0.5-0.1-0.7-0.1c-0.2,0-0.4-0.1-0.7-0.1c-0.2,0-0.4-0.1-0.6-0.1c-0.4-0.1-0.7-0.2-1-0.3c-0.1-0.1-0.3-0.1-0.4-0.2
		c-0.1-0.1-0.2-0.1-0.3-0.1c-0.1,0-0.2-0.1-0.2-0.1c0,0,0,0,0,0L111.4,169.6z"/>
	<path id="Fill-34" class="st0" d="M107.6,186.4c0,0,0.4-0.3,1.1-0.9c0.7-0.5,1.7-1.3,2.9-2.1c1.2-0.8,2.7-1.7,4.3-2.6
		c0.8-0.4,1.7-0.9,2.5-1.3c0.9-0.4,1.8-0.8,2.7-1.2c0.9-0.4,1.8-0.7,2.8-1c0.5-0.1,0.9-0.3,1.4-0.4c0.5-0.1,0.9-0.3,1.4-0.4
		c0.5-0.1,0.9-0.2,1.3-0.3c0.4-0.1,0.9-0.2,1.3-0.3c0.8-0.2,1.6-0.3,2.4-0.4c0.4-0.1,0.7-0.1,1.1-0.1c0.3,0,0.7-0.1,1-0.1
		c0.6,0,1.1-0.1,1.6-0.1c0.9,0,1.4,0,1.4,0v0.2c0,0-0.5,0-1.4,0c-0.4,0-1,0.1-1.5,0.1c-0.3,0-0.6,0.1-0.9,0.1c-0.3,0-0.7,0.1-1,0.1
		c-0.7,0.1-1.5,0.3-2.3,0.4c-0.4,0.1-0.8,0.2-1.3,0.3c-0.4,0.1-0.9,0.2-1.3,0.4c-0.4,0.1-0.9,0.3-1.3,0.4c-0.4,0.2-0.9,0.3-1.4,0.5
		c-0.9,0.3-1.8,0.7-2.7,1.1c-0.9,0.4-1.8,0.8-2.6,1.2c-0.9,0.4-1.7,0.9-2.5,1.3c-1.6,0.9-3,1.8-4.2,2.7c-1.2,0.8-2.1,1.6-2.8,2.1
		c-0.6,0.5-1,0.9-1,0.9L107.6,186.4z"/>
	<path id="Fill-36" class="st0" d="M109.7,178.7C109.7,178.7,109.7,178.7,109.7,178.7c0.1-0.1,0.2-0.1,0.2-0.1
		c0.1-0.1,0.3-0.2,0.6-0.3c0.1-0.1,0.3-0.1,0.4-0.1c0.1,0,0.3-0.1,0.5-0.1c0.2,0,0.3,0,0.5,0c0.2,0,0.3,0,0.5,0
		c0.2,0,0.3,0.1,0.5,0.1c0.2,0,0.3,0.1,0.5,0.1c0.1,0.1,0.3,0.1,0.4,0.2c0.1,0.1,0.2,0.1,0.3,0.2c0.2,0.1,0.4,0.2,0.5,0.3
		c0.1,0.1,0.2,0.1,0.2,0.1s-0.1,0-0.2-0.1c-0.1-0.1-0.3-0.2-0.5-0.2c-0.1,0-0.2-0.1-0.4-0.1c-0.1,0-0.3-0.1-0.4-0.1
		c-0.1,0-0.3,0-0.4,0c-0.1,0-0.3,0-0.4,0c-0.1,0-0.3,0-0.4,0.1c-0.1,0-0.3,0.1-0.4,0.1c-0.1,0-0.2,0.1-0.3,0.1
		c-0.1,0.1-0.2,0.1-0.3,0.2c-0.2,0.1-0.3,0.2-0.4,0.3c0,0-0.1,0.1-0.1,0.1c0,0,0,0,0,0L109.7,178.7z"/>
	<path id="Fill-38" class="st0" d="M8.8,103.9c0,0,0.1,0,0.4-0.1c0.3-0.1,0.7-0.1,1.1-0.2c0.5-0.1,1.1-0.2,1.8-0.3
		c0.7-0.1,1.5-0.2,2.3-0.3c0.8-0.1,1.8-0.1,2.7-0.2c0.5,0,1,0,1.5,0c0.5,0,1,0,1.6,0c1.1,0,2.1,0,3.2,0.1c0.6,0,1.1,0.1,1.7,0.1
		c0.6,0.1,1.1,0.1,1.7,0.2c1.1,0.1,2.2,0.3,3.3,0.4c0.3,0,0.5,0.1,0.8,0.1c0.3,0,0.5,0.1,0.8,0.2c0.5,0.1,1,0.2,1.6,0.3
		c0.3,0.1,0.5,0.1,0.8,0.2c0.3,0.1,0.5,0.1,0.7,0.2c0.5,0.1,1,0.3,1.4,0.4c0.5,0.1,0.9,0.2,1.3,0.4c0.4,0.1,0.8,0.3,1.2,0.4
		c0.8,0.3,1.5,0.5,2.1,0.7c0.6,0.3,1.2,0.5,1.6,0.7c0.9,0.4,1.4,0.6,1.4,0.6s-0.5-0.2-1.4-0.5c-0.5-0.2-1-0.4-1.6-0.6
		c-0.6-0.2-1.4-0.4-2.2-0.6c-0.4-0.1-0.8-0.2-1.2-0.4c-0.4-0.1-0.9-0.2-1.4-0.3c-0.5-0.1-0.9-0.2-1.4-0.3c-0.2-0.1-0.5-0.1-0.7-0.2
		c-0.3,0-0.5-0.1-0.8-0.1c-0.5-0.1-1-0.2-1.6-0.2c-0.3,0-0.5-0.1-0.8-0.1c-0.3,0-0.5-0.1-0.8-0.1c-1.1-0.1-2.2-0.2-3.3-0.3
		c-0.6,0-1.1-0.1-1.7-0.1c-0.5,0-1.1,0-1.6,0c-1.1,0-2.2,0-3.2,0.1c-0.5,0-1,0.1-1.5,0.1c-0.5,0-1,0.1-1.4,0.1
		c-0.9,0.1-1.8,0.2-2.6,0.3c-0.8,0.1-1.6,0.2-2.2,0.4c-0.7,0.1-1.2,0.2-1.7,0.3c-0.5,0.1-0.8,0.2-1.1,0.3c-0.2,0.1-0.4,0.1-0.4,0.1
		L8.8,103.9z"/>
	<path id="Fill-40" class="st0" d="M6.6,109.8c0,0,0.1,0,0.3,0.1c0.2,0.1,0.5,0.2,0.9,0.4c0.4,0.2,0.8,0.3,1.4,0.5
		c0.5,0.2,1.1,0.4,1.8,0.7c0.7,0.2,1.4,0.5,2.2,0.7c0.4,0.1,0.8,0.2,1.2,0.4c0.4,0.1,0.8,0.2,1.3,0.4c0.9,0.2,1.8,0.5,2.7,0.7
		c0.9,0.2,1.8,0.4,2.8,0.6c0.9,0.2,1.9,0.4,2.8,0.5c0.9,0.2,1.8,0.3,2.7,0.4c0.9,0.1,1.7,0.2,2.6,0.3c0.8,0.1,1.6,0.2,2.3,0.3
		c0.7,0.1,1.4,0.2,1.9,0.2c0.6,0,1.1,0.1,1.5,0.1c0.8,0.1,1.3,0.1,1.3,0.1s-0.5,0-1.3,0c-0.4,0-0.9,0-1.5-0.1c-0.6,0-1.2-0.1-2-0.1
		c-0.7-0.1-1.5-0.1-2.3-0.2c-0.8-0.1-1.7-0.2-2.6-0.3c-0.9-0.1-1.8-0.2-2.7-0.4c-0.9-0.1-1.9-0.3-2.8-0.5c-0.9-0.2-1.9-0.3-2.8-0.5
		c-0.9-0.2-1.8-0.4-2.7-0.6c-0.4-0.1-0.9-0.2-1.3-0.3c-0.4-0.1-0.8-0.2-1.2-0.3c-0.8-0.2-1.5-0.4-2.2-0.6c-0.7-0.2-1.3-0.4-1.9-0.6
		c-0.6-0.2-1-0.4-1.4-0.5c-0.4-0.2-0.7-0.3-0.9-0.4c-0.2-0.1-0.3-0.1-0.3-0.1L6.6,109.8z"/>
	<path id="Fill-42" class="st0" d="M2,119.9c0,0,0.1,0.1,0.3,0.3c0.2,0.2,0.5,0.5,1,0.8c0.9,0.7,2.2,1.6,3.8,2.6
		c0.8,0.5,1.8,1,2.8,1.5c0.5,0.2,1,0.5,1.6,0.7c0.5,0.2,1.1,0.5,1.7,0.7c0.3,0.1,0.6,0.2,0.9,0.3c0.3,0.1,0.6,0.2,0.9,0.3
		c0.6,0.2,1.2,0.4,1.8,0.6c0.6,0.2,1.3,0.3,1.9,0.5c0.6,0.1,1.3,0.3,1.9,0.4c1.3,0.3,2.6,0.5,3.9,0.6c0.6,0.1,1.3,0.2,1.9,0.2
		c0.6,0,1.3,0.1,1.9,0.1c0.6,0,1.2,0.1,1.8,0.1c0.6,0,1.2,0,1.8,0c0.6,0,1.1,0,1.7,0c0.3,0,0.5,0,0.8,0c0.3,0,0.5,0,0.8,0
		c0.5,0,1-0.1,1.4-0.1c0.5,0,0.9-0.1,1.3-0.1c0.8-0.1,1.5-0.1,2.1-0.2c1.2-0.1,1.8-0.2,1.8-0.2s-0.7,0.1-1.8,0.3
		c-0.6,0.1-1.3,0.2-2.1,0.3c-0.4,0-0.8,0.1-1.3,0.2c-0.5,0-0.9,0.1-1.4,0.1c-0.2,0-0.5,0-0.8,0.1c-0.3,0-0.5,0-0.8,0
		c-0.5,0-1.1,0.1-1.7,0.1c-0.6,0-1.2,0-1.8,0c-0.6,0-1.2,0-1.8,0c-0.6,0-1.3,0-1.9-0.1c-0.6,0-1.3-0.1-2-0.1c-1.3-0.1-2.6-0.3-4-0.5
		c-0.7-0.1-1.3-0.2-2-0.4c-0.7-0.1-1.3-0.3-1.9-0.4c-0.6-0.2-1.3-0.3-1.9-0.5c-0.3-0.1-0.6-0.2-0.9-0.3c-0.3-0.1-0.6-0.2-0.9-0.3
		c-0.6-0.2-1.2-0.4-1.7-0.6c-0.6-0.2-1.1-0.4-1.6-0.7c-1.1-0.5-2-0.9-2.9-1.4c-1.8-1-3.2-1.9-4.1-2.6c-0.5-0.4-0.8-0.7-1.1-0.9
		c-0.2-0.2-0.4-0.3-0.4-0.3L2,119.9z"/>
	<path id="Fill-44" class="st0" d="M172,148.3c0,0-0.2,0.1-0.4,0.2c-0.2,0.1-0.6,0.3-1,0.5c-0.2,0.1-0.4,0.2-0.7,0.3
		c-0.2,0.1-0.5,0.2-0.7,0.4c-0.2,0.1-0.5,0.3-0.8,0.5c-0.3,0.1-0.5,0.3-0.8,0.5c-0.3,0.2-0.5,0.3-0.8,0.5c-0.3,0.2-0.5,0.4-0.7,0.5
		c-0.2,0.2-0.5,0.3-0.7,0.5c-0.2,0.2-0.4,0.3-0.6,0.5c-0.7,0.6-1.2,1-1.2,1s0.4-0.5,1-1.1c0.2-0.2,0.3-0.4,0.5-0.5
		c0.2-0.2,0.4-0.4,0.6-0.6c0.2-0.2,0.4-0.4,0.7-0.6c0.2-0.2,0.5-0.4,0.7-0.6c0.2-0.2,0.5-0.4,0.7-0.6c0.2-0.2,0.5-0.4,0.7-0.5
		c0.2-0.2,0.5-0.3,0.7-0.5c0.2-0.1,0.4-0.3,0.6-0.4c0.4-0.2,0.7-0.5,1-0.6c0.3-0.1,0.4-0.2,0.4-0.2L172,148.3z"/>
	<path id="Fill-46" class="st0" d="M178.4,163.4c0,0,0,0-0.1,0c-0.1,0-0.2,0-0.3,0c-0.3,0-0.7-0.1-1.2-0.1c-0.3,0-0.5,0-0.8,0
		c-0.3,0-0.6,0-0.9,0c-0.3,0-0.7,0-1,0c-0.3,0-0.7,0.1-1,0.1c-0.3,0-0.7,0.1-1,0.1c-0.3,0.1-0.7,0.1-1,0.2c-0.3,0.1-0.6,0.2-0.9,0.3
		c-0.3,0.1-0.5,0.2-0.8,0.3c-0.2,0.1-0.4,0.2-0.6,0.3c-0.2,0.1-0.3,0.2-0.5,0.3c-0.3,0.2-0.4,0.3-0.4,0.3l-0.1-0.1
		c0,0,0.1-0.1,0.4-0.3c0.1-0.1,0.3-0.2,0.4-0.3c0.2-0.1,0.4-0.2,0.6-0.4c0.2-0.1,0.5-0.2,0.8-0.4c0.3-0.1,0.6-0.2,0.9-0.3
		c0.3-0.1,0.6-0.2,1-0.3c0.3-0.1,0.7-0.2,1-0.2c0.4-0.1,0.7-0.1,1-0.2c0.3,0,0.7-0.1,1-0.1c0.3,0,0.7,0,1-0.1c0.3,0,0.6,0,0.9,0
		c0.5,0,1,0,1.3,0c0.2,0,0.3,0,0.4,0c0.1,0,0.1,0,0.1,0L178.4,163.4z"/>
	<path id="Fill-48" class="st0" d="M181.7,172.2c0,0-0.1,0-0.3,0.1c-0.1,0-0.2,0.1-0.3,0.1c-0.1,0-0.3,0.1-0.4,0.1
		c-0.1,0.1-0.3,0.1-0.5,0.2c-0.2,0-0.3,0.1-0.5,0.2c-0.2,0-0.4,0.1-0.6,0.1c-0.2,0.1-0.4,0.1-0.6,0.1c-0.2,0-0.4,0.1-0.6,0.1
		c-0.2,0-0.4,0-0.6,0.1c-0.2,0-0.4,0-0.5,0.1c-0.2,0-0.3,0-0.5,0c-0.6,0-1,0-1,0s0.4-0.1,1-0.2c0.1,0,0.3-0.1,0.5-0.1
		c0.2,0,0.3-0.1,0.5-0.1c0.2-0.1,0.4-0.1,0.5-0.2c0.2-0.1,0.4-0.1,0.6-0.2c0.2-0.1,0.4-0.1,0.5-0.2c0.2-0.1,0.3-0.2,0.5-0.2
		c0.2-0.1,0.3-0.2,0.5-0.2c0.1-0.1,0.3-0.1,0.4-0.2c0.1-0.1,0.2-0.1,0.3-0.2c0.1-0.1,0.2-0.1,0.2-0.2c0.1-0.1,0.2-0.1,0.2-0.1
		L181.7,172.2z"/>
	<path id="Fill-50" class="st0" d="M182,185.4c0,0-0.2,0-0.5-0.1c-0.3-0.1-0.7-0.2-1.3-0.3c-0.5-0.1-1.1-0.3-1.7-0.5
		c-0.6-0.2-1.3-0.4-1.9-0.7c-0.3-0.1-0.7-0.3-1-0.4c-0.3-0.2-0.6-0.3-0.9-0.4c-0.3-0.2-0.6-0.3-0.8-0.4c-0.3-0.2-0.5-0.3-0.7-0.4
		c-0.2-0.1-0.4-0.3-0.6-0.4c-0.2-0.1-0.3-0.2-0.4-0.3c-0.2-0.2-0.4-0.3-0.4-0.3s0.1,0.1,0.4,0.3c0.1,0.1,0.3,0.2,0.5,0.3
		c0.2,0.1,0.4,0.2,0.6,0.3c0.2,0.1,0.5,0.2,0.8,0.4c0.3,0.1,0.6,0.2,0.9,0.4c0.3,0.1,0.6,0.2,0.9,0.3c0.3,0.1,0.7,0.2,1,0.3
		c0.7,0.2,1.3,0.4,2,0.5c0.6,0.1,1.2,0.3,1.7,0.3c0.5,0.1,0.9,0.2,1.2,0.2c0.3,0,0.5,0.1,0.5,0.1L182,185.4z"/>
	<path id="Fill-52" class="st0" d="M202.6,159.2C202.6,159.2,202.6,159.2,202.6,159.2c-0.1-0.1-0.1-0.1-0.2-0.2
		c-0.2-0.1-0.4-0.2-0.7-0.4c-0.1-0.1-0.3-0.1-0.5-0.2c-0.2-0.1-0.4-0.1-0.6-0.2c-0.2-0.1-0.4-0.1-0.6-0.1c-0.2,0-0.4,0-0.7-0.1
		c-0.2,0-0.5,0-0.7,0c-0.2,0-0.4,0-0.7,0.1c-0.2,0-0.4,0.1-0.6,0.1c-0.2,0-0.4,0.1-0.5,0.1c-0.2,0-0.3,0.1-0.5,0.1
		c-0.1,0.1-0.2,0.1-0.3,0.1c-0.2,0.1-0.3,0.1-0.3,0.1l-0.1-0.1c0,0,0.1-0.1,0.3-0.2c0.1,0,0.2-0.1,0.3-0.2c0.1-0.1,0.3-0.1,0.4-0.2
		c0.2-0.1,0.3-0.2,0.5-0.2c0.2-0.1,0.4-0.1,0.6-0.2c0.2-0.1,0.5-0.1,0.7-0.2c0.2,0,0.5-0.1,0.7-0.1c0.2,0,0.5,0,0.7,0
		c0.2,0,0.5,0,0.7,0.1c0.2,0,0.5,0.1,0.7,0.1c0.2,0.1,0.4,0.1,0.6,0.2c0.4,0.1,0.7,0.3,0.9,0.4c0.1,0.1,0.2,0.1,0.2,0.1
		c0.1,0,0.1,0.1,0.1,0.1L202.6,159.2z"/>
	<path id="Fill-54" class="st0" d="M204.2,170.5c0,0-0.1,0-0.2,0c-0.1,0-0.2,0-0.3,0c-0.1,0-0.2,0-0.4-0.1c-0.1,0-0.3-0.1-0.4-0.1
		c-0.1,0-0.3-0.1-0.4-0.1c-0.1-0.1-0.3-0.1-0.5-0.2c-0.2-0.1-0.3-0.1-0.5-0.2c-0.2-0.1-0.3-0.1-0.4-0.2c-0.1-0.1-0.3-0.2-0.4-0.2
		c-0.1-0.1-0.3-0.2-0.4-0.2c-0.1-0.1-0.2-0.2-0.3-0.2c-0.4-0.3-0.6-0.5-0.6-0.5s0.3,0.1,0.7,0.4c0.1,0.1,0.2,0.1,0.4,0.2
		c0.1,0,0.3,0.1,0.4,0.1c0.1,0.1,0.3,0.1,0.4,0.2c0.1,0,0.3,0.1,0.5,0.1c0.2,0,0.3,0.1,0.5,0.1c0.2,0,0.3,0,0.4,0.1
		c0.1,0,0.3,0,0.4,0c0.1,0,0.3,0,0.4,0c0.1,0,0.2,0,0.3,0c0.1,0,0.2,0,0.2,0c0.1,0,0.2,0,0.2,0L204.2,170.5z"/>
	<path id="Fill-56" class="st0" d="M204.1,164.5c0,0-0.1,0-0.2,0c-0.1,0-0.3,0-0.6,0c-0.5,0-1.1,0-1.7-0.1c-0.3,0-0.6-0.1-0.9-0.1
		c-0.1,0-0.3,0-0.4-0.1c-0.1,0-0.2,0-0.4-0.1c-0.4-0.1-0.7-0.2-0.7-0.2l0-0.1c0,0,0.3,0,0.7,0c0.1,0,0.2,0,0.4,0c0.1,0,0.3,0,0.4,0
		c0.3,0,0.6,0,0.8-0.1c0.6-0.1,1.1-0.2,1.6-0.3c0.2,0,0.4-0.1,0.5-0.1c0.1,0,0.2-0.1,0.2-0.1L204.1,164.5z"/>
	<path id="Fill-58" class="st0" d="M202.3,154.3c0,0-0.1,0-0.2,0c-0.1,0-0.3-0.1-0.5-0.1c-0.4-0.1-1-0.2-1.6-0.3
		c-0.3,0-0.6-0.1-0.8-0.1c-0.1,0-0.3,0-0.4,0c-0.1,0-0.2,0-0.4,0c-0.4,0-0.7,0-0.7,0l0-0.1c0,0,0.3-0.1,0.7-0.2c0.1,0,0.2,0,0.4-0.1
		c0.1,0,0.3,0,0.4-0.1c0.3-0.1,0.6-0.1,0.9-0.1c0.6,0,1.2-0.1,1.7-0.1c0.2,0,0.4,0,0.6,0c0.1,0,0.2,0,0.2,0L202.3,154.3z"/>
	<path id="Fill-60" class="st0" d="M-48.4,206.2c0,0-0.1,0.2-0.3,0.5c-0.2,0.3-0.5,0.7-0.9,1.3c-0.4,0.6-0.8,1.3-1.3,2.1
		c-0.5,0.8-1,1.7-1.6,2.7c-0.3,0.5-0.6,1-0.9,1.6c-0.3,0.5-0.6,1.1-0.9,1.7c-0.6,1.2-1.2,2.4-1.9,3.7c-0.3,0.6-0.6,1.3-0.9,2
		c-0.3,0.7-0.7,1.3-0.9,2c-0.3,0.7-0.6,1.4-0.9,2.1c-0.2,0.4-0.3,0.7-0.5,1.1l-0.4,1.1c-0.3,0.7-0.6,1.4-0.8,2.1
		c-0.3,0.7-0.5,1.4-0.8,2.1c-0.3,0.7-0.5,1.4-0.7,2.1c-0.2,0.7-0.4,1.4-0.6,2.1c-0.2,0.7-0.4,1.4-0.6,2c-0.2,0.7-0.3,1.3-0.5,2
		c-0.3,1.3-0.6,2.5-0.8,3.6c-0.2,1.1-0.4,2.2-0.6,3.1c-0.1,0.9-0.2,1.7-0.3,2.4c-0.2,1.3-0.3,2.1-0.3,2.1l-0.5,0
		c0,0,0.1-0.8,0.2-2.1c0.1-0.7,0.2-1.5,0.3-2.4c0.2-0.9,0.4-2,0.6-3.1c0.2-1.1,0.5-2.4,0.8-3.6c0.2-0.6,0.3-1.3,0.5-2
		c0.2-0.7,0.4-1.3,0.6-2c0.2-0.7,0.4-1.4,0.6-2.1c0.2-0.7,0.5-1.4,0.7-2.1c0.3-0.7,0.5-1.4,0.7-2.2c0.3-0.7,0.5-1.4,0.8-2.2l0.4-1.1
		c0.1-0.4,0.3-0.7,0.4-1.1c0.3-0.7,0.6-1.4,0.9-2.1c0.3-0.7,0.6-1.4,0.9-2.1c0.3-0.7,0.6-1.4,0.9-2c0.7-1.3,1.2-2.6,1.9-3.7
		c0.3-0.6,0.6-1.2,0.9-1.7c0.3-0.5,0.6-1.1,0.9-1.6c0.6-1,1.1-1.9,1.6-2.8c0.5-0.8,0.9-1.5,1.3-2.1c0.4-0.6,0.7-1,0.9-1.3
		c0.2-0.3,0.3-0.5,0.3-0.5L-48.4,206.2z"/>
	<path id="Fill-62" class="st0" d="M-59.9,215.9c0,0-0.1,0.2-0.3,0.4c-0.2,0.3-0.5,0.7-0.9,1.3c-0.8,1.1-1.8,2.8-3,4.9
		c-0.6,1-1.2,2.2-1.8,3.4c-0.6,1.2-1.2,2.5-1.8,3.9c-0.6,1.4-1.2,2.8-1.7,4.2c-0.3,0.7-0.5,1.5-0.8,2.2c-0.2,0.7-0.5,1.5-0.7,2.2
		c-0.5,1.5-0.9,3-1.3,4.5c-0.1,0.4-0.2,0.8-0.3,1.1c-0.1,0.4-0.2,0.7-0.2,1.1c-0.1,0.4-0.2,0.7-0.2,1.1c-0.1,0.4-0.1,0.7-0.2,1.1
		c-0.1,0.7-0.3,1.4-0.4,2.1c-0.1,0.7-0.2,1.4-0.3,2.1c-0.1,0.7-0.2,1.3-0.2,2c-0.1,0.6-0.1,1.2-0.2,1.8c-0.1,0.6-0.1,1.2-0.1,1.7
		c0,0.5-0.1,1-0.1,1.5c0,1,0,1.8,0,2.5c0,1.4,0,2.2,0,2.2l-0.2,0c0,0,0-0.8-0.1-2.2c0-0.7,0-1.5,0-2.5c0-0.5,0-1,0-1.5
		c0-0.5,0-1.1,0.1-1.7c0-0.6,0.1-1.2,0.1-1.8c0-0.6,0.1-1.3,0.2-2c0.1-0.7,0.2-1.4,0.2-2.1c0.1-0.7,0.2-1.4,0.3-2.2
		c0.1-0.4,0.1-0.7,0.2-1.1c0.1-0.4,0.1-0.7,0.2-1.1c0.1-0.4,0.1-0.8,0.2-1.1c0.1-0.4,0.2-0.8,0.2-1.1c0.3-1.5,0.7-3.1,1.2-4.6
		c0.2-0.8,0.5-1.5,0.7-2.3c0.2-0.8,0.5-1.5,0.7-2.2c0.5-1.5,1.1-2.9,1.6-4.3c0.6-1.4,1.2-2.7,1.7-4c0.6-1.2,1.2-2.4,1.7-3.5
		c1.1-2.1,2.2-3.8,2.9-5c0.4-0.6,0.7-1.1,0.9-1.4c0.2-0.3,0.3-0.5,0.3-0.5L-59.9,215.9z"/>
	<path id="Fill-64" class="st0" d="M71.2,162.3c0,0,0.1,0,0.2,0.1c0.1,0.1,0.3,0.1,0.5,0.2c0.4,0.2,1.1,0.4,1.8,0.7
		c0.4,0.1,0.8,0.3,1.3,0.4c0.5,0.1,0.9,0.3,1.4,0.4c0.5,0.1,1,0.2,1.6,0.3c0.5,0.1,1.1,0.2,1.6,0.3c0.6,0.1,1.1,0.1,1.6,0.2
		c0.5,0,1.1,0.1,1.6,0.1c0.5,0,1,0,1.5,0c0.5,0,0.9,0,1.3,0c0.4,0,0.8,0,1.1,0c0.3,0,0.6,0,0.9-0.1c0.5,0,0.8-0.1,0.8-0.1l0,0.2
		c0,0-0.3,0-0.8,0.1c-0.2,0-0.5,0.1-0.9,0.1c-0.3,0-0.7,0.1-1.1,0.1c-0.4,0-0.9,0.1-1.4,0.1c-0.5,0-1,0-1.5,0c-0.5,0-1.1,0-1.6,0
		c-0.6,0-1.1-0.1-1.7-0.1c-0.6-0.1-1.1-0.1-1.7-0.2c-0.5-0.1-1.1-0.2-1.6-0.3c-0.5-0.1-1-0.2-1.5-0.3c-0.5-0.1-0.9-0.2-1.3-0.4
		c-0.8-0.2-1.5-0.5-2-0.7c-0.2-0.1-0.4-0.2-0.5-0.2c-0.1-0.1-0.2-0.1-0.2-0.1L71.2,162.3z"/>
	<path id="Fill-66" class="st0" d="M73.1,158.2C73.1,158.2,73.1,158.3,73.1,158.2c0.1,0.1,0.2,0.1,0.3,0.2c0.2,0.1,0.4,0.2,0.7,0.4
		c0.3,0.2,0.6,0.3,1,0.5c0.2,0.1,0.4,0.2,0.6,0.2c0.2,0.1,0.4,0.2,0.6,0.2c0.4,0.1,0.8,0.3,1.2,0.4c0.2,0.1,0.4,0.1,0.6,0.1
		c0.2,0,0.4,0.1,0.5,0.1c0.7,0.1,1.1,0.2,1.1,0.2s-0.5,0-1.1,0c-0.2,0-0.4,0-0.5,0c-0.2,0-0.4,0-0.6-0.1c-0.4,0-0.9-0.1-1.3-0.2
		c-0.2,0-0.4-0.1-0.7-0.2c-0.2-0.1-0.4-0.1-0.6-0.2c-0.4-0.1-0.8-0.2-1.1-0.4c-0.3-0.1-0.6-0.2-0.8-0.3c-0.1,0-0.2-0.1-0.2-0.1
		c0,0-0.1,0-0.1,0L73.1,158.2z"/>
	<path id="Fill-68" class="st0" d="M-27,441.6C-27,441.6-26.9,441.6-27,441.6c0.1,0.1,0.1,0.2,0.2,0.3c0,0.1,0,0.1,0,0.2
		c0,0.1,0,0.2,0,0.1c0,0.2-0.1,0.4-0.2,0.6c0,0.1-0.1,0.2-0.1,0.4c-0.1,0.1-0.1,0.2-0.2,0.4c-0.1,0.3-0.3,0.6-0.5,0.9
		c-0.1,0.2-0.2,0.3-0.3,0.5c-0.1,0.2-0.2,0.4-0.4,0.6c-0.2,0.4-0.5,0.8-0.8,1.3c-0.3,0.4-0.6,0.9-0.9,1.4c-0.3,0.5-0.7,1-1.1,1.5
		c-0.7,1.1-1.6,2.2-2.5,3.4c-0.9,1.2-1.9,2.4-2.8,3.7c-1,1.3-2,2.6-3.1,4c-1.1,1.3-2.1,2.7-3.2,4.1c-1.1,1.4-2.2,2.7-3.2,4
		c-1.1,1.3-2.1,2.6-3.2,3.9c-1,1.3-2,2.5-3,3.6c-1,1.1-1.8,2.2-2.7,3.2c-3.3,4-5.6,6.7-5.6,6.7s2.2-2.7,5.4-6.8
		c0.8-1,1.7-2.1,2.6-3.3c0.9-1.2,1.9-2.4,2.9-3.7c1-1.3,2-2.6,3.1-4c1-1.4,2.1-2.7,3.1-4.1c1-1.4,2.1-2.8,3.1-4.1c1-1.4,2-2.7,3-4
		c0.9-1.3,1.9-2.6,2.7-3.8c0.8-1.2,1.7-2.4,2.4-3.4c0.4-0.5,0.7-1.1,1-1.5c0.3-0.5,0.6-1,0.9-1.4c0.3-0.4,0.5-0.9,0.8-1.2
		c0.1-0.2,0.2-0.4,0.3-0.6c0.1-0.2,0.2-0.3,0.3-0.5c0.2-0.3,0.3-0.6,0.4-0.9c0.1-0.1,0.1-0.2,0.2-0.3c0-0.1,0.1-0.2,0.1-0.3
		c0.1-0.2,0.1-0.2,0.1-0.3c0,0,0,0,0,0.1c0,0,0,0.1,0,0.1c0,0.1,0.1,0.1,0.1,0.1l0,0c0,0,0,0,0,0c0,0,0,0,0,0c0,0,0,0,0,0L-27,441.6
		z"/>
</g>
</svg>
